<?xml version="1.0" encoding="UTF-8"?>
<svg version="1.1" xmlns="http://www.w3.org/2000/svg" width="649" height="627">
<path d="M0 0 C25.68394647 24.52309014 38.69950676 60.01303694 39.56640625 95.171875 C39.58569731 97.78639008 39.58921251 100.40106226 39.578125 103.015625 C39.57539078 104.05177444 39.57539078 104.05177444 39.57260132 105.1088562 C39.51688216 117.76000931 38.50542957 130.0574198 36.265625 142.515625 C36.11528809 143.39814941 35.96495117 144.28067383 35.81005859 145.18994141 C26.77054571 196.88318902 1.12116177 246.62782666 -29.734375 288.515625 C-30.48050049 289.537771 -30.48050049 289.537771 -31.24169922 290.58056641 C-37.25566663 298.80847749 -43.4875819 306.77147708 -50.14453125 314.48828125 C-52.60989912 317.37012152 -54.98990519 320.30481438 -57.359375 323.265625 C-60.87775243 327.5944858 -64.63577859 331.52402764 -68.62890625 335.4140625 C-70.53839262 337.32000622 -72.30081003 339.27343354 -74.046875 341.328125 C-80.63414427 348.98774043 -87.92967719 356.13872376 -95.62109375 362.68359375 C-97.79057604 364.56434642 -99.8986428 366.50433365 -102.00244141 368.45800781 C-108.05196592 374.06954905 -114.27280461 379.37887973 -120.734375 384.515625 C-121.94664161 385.50517522 -123.15887928 386.49476091 -124.37109375 387.484375 C-145.01164619 404.12628724 -167.66930385 418.49806439 -190.734375 431.515625 C-191.37697266 431.88510254 -192.01957031 432.25458008 -192.68164062 432.63525391 C-222.29682407 449.6194807 -255.4045703 461.49403111 -288.734375 468.515625 C-289.78786133 468.74008301 -290.84134766 468.96454102 -291.92675781 469.19580078 C-306.8450236 472.23022169 -321.56119621 472.89554863 -336.734375 472.953125 C-337.58857025 472.95947968 -338.4427655 472.96583435 -339.32284546 472.97238159 C-355.11194211 473.04555229 -370.80942725 471.59921476 -385.921875 466.765625 C-386.7459082 466.50813477 -387.56994141 466.25064453 -388.41894531 465.98535156 C-408.13957366 459.64521902 -424.98934119 450.10953841 -439.734375 435.515625 C-440.52199219 434.78859375 -441.30960937 434.0615625 -442.12109375 433.3125 C-458.39867183 417.97237406 -468.18260494 396.92634478 -473.734375 375.515625 C-474.02828125 374.39542969 -474.3221875 373.27523438 -474.625 372.12109375 C-490.69957589 304.43452173 -462.30721117 232.18378227 -427.43359375 175.0703125 C-419.79564603 162.76151544 -411.48161674 151.05442475 -402.734375 139.515625 C-401.59804755 138.00328807 -400.46259361 136.49029432 -399.328125 134.9765625 C-398.82990234 134.31188965 -398.33167969 133.6472168 -397.81835938 132.96240234 C-397.46064453 132.48496582 -397.10292969 132.0075293 -396.734375 131.515625 C-392.48621449 132.0787096 -389.05867811 133.1066959 -385.171875 134.890625 C-377.28787145 138.23915527 -369.50771046 140.56473577 -360.88671875 140.578125 C-348.11230599 140.75785942 -348.11230599 140.75785942 -343.89208984 143.87744141 C-340.37433181 147.55688654 -337.80853055 151.85497394 -335.19580078 156.19970703 C-332.68757166 160.17449177 -329.72651581 163.78438211 -326.796875 167.453125 C-325.60995494 168.9697722 -324.42505669 170.48800382 -323.2421875 172.0078125 C-322.65856445 172.75643555 -322.07494141 173.50505859 -321.47363281 174.27636719 C-317.05584329 179.96417818 -312.697133 185.6975315 -308.33007812 191.42431641 C-306.22758042 194.17982364 -304.12101236 196.93220498 -302.0144043 199.68457031 C-299.25261785 203.29356429 -296.49344089 206.90455098 -293.734375 210.515625 C-293.11159668 211.33047363 -292.48881836 212.14532227 -291.84716797 212.98486328 C-284.55776481 222.52553915 -277.29571041 232.08452026 -270.109375 241.703125 C-264.77171353 248.84374852 -259.35205424 255.91360467 -253.86279297 262.93823242 C-249.95465112 267.94005834 -246.08229606 272.96734398 -242.234375 278.015625 C-237.18743247 284.63465407 -232.08992943 291.21255977 -226.97143555 297.77636719 C-222.42465797 303.61292558 -217.92462091 309.48387055 -213.44433594 315.37158203 C-210.82984392 318.80078141 -208.19549857 322.21059652 -205.51171875 325.5859375 C-205.0014917 326.22821289 -204.49126465 326.87048828 -203.96557617 327.53222656 C-203.00472578 328.7377636 -202.0402524 329.94042529 -201.0715332 331.13964844 C-199.10675992 333.60370091 -197.74074307 335.49652078 -196.734375 338.515625 C-192.43981265 337.44356629 -188.14934127 336.35591726 -183.859375 335.265625 C-182.05339844 334.81509766 -182.05339844 334.81509766 -180.2109375 334.35546875 C-170.16381588 331.78908442 -160.99984712 328.87278214 -152.421875 322.953125 C-151.78797852 322.52185303 -151.15408203 322.09058105 -150.50097656 321.64624023 C-143.86052138 317.04346089 -137.7018377 311.95518189 -131.734375 306.515625 C-130.78820312 305.65324219 -129.84203125 304.79085938 -128.8671875 303.90234375 C-121.45271185 296.8134329 -115.45599066 289.00164195 -109.734375 280.515625 C-108.6515625 278.93587891 -108.6515625 278.93587891 -107.546875 277.32421875 C-100.63643215 266.32419742 -97.36194268 253.89426231 -93.734375 241.515625 C-94.23646484 241.08572266 -94.73855469 240.65582031 -95.25585938 240.21289062 C-99.77076364 236.31075376 -104.06530432 232.28250379 -108.234375 228.015625 C-112.24092628 223.95858303 -116.2932683 220.075633 -120.64453125 216.38671875 C-124.00933575 213.37411809 -127.13982688 210.12990458 -130.31274414 206.91772461 C-133.03761579 204.17220673 -135.78469825 201.52285024 -138.734375 199.015625 C-142.8239112 195.53951923 -146.5439804 191.73312844 -150.3125 187.91796875 C-153.03745501 185.17237014 -155.78460973 182.52292548 -158.734375 180.015625 C-162.25515194 177.0229646 -165.4898503 173.8002985 -168.734375 170.515625 C-171.95835587 167.25179885 -175.16955347 164.04732359 -178.671875 161.078125 C-183.0130057 157.38952334 -186.95271841 153.32318743 -190.95458984 149.27587891 C-194.39457988 145.81192377 -197.91982444 142.54445116 -201.64453125 139.38671875 C-205.00933575 136.37411809 -208.13982688 133.12990458 -211.31274414 129.91772461 C-214.03761579 127.17220673 -216.78469825 124.52285024 -219.734375 122.015625 C-223.25515194 119.0229646 -226.4898503 115.8002985 -229.734375 112.515625 C-232.95835587 109.25179885 -236.16955347 106.04732359 -239.671875 103.078125 C-244.00540273 99.39598348 -247.94057787 95.3387706 -251.93261719 91.2956543 C-255.5598166 87.63920327 -259.27322166 84.16659971 -263.24609375 80.8828125 C-264.734375 79.515625 -264.734375 79.515625 -266.734375 76.515625 C-266.50537109 74.47900391 -266.50537109 74.47900391 -265.8828125 72.1171875 C-264.51010786 66.01848844 -264.351561 60.12528161 -264.359375 53.890625 C-264.35881104 52.75141602 -264.35824707 51.61220703 -264.35766602 50.43847656 C-264.47769258 41.18003396 -266.03219305 33.32755972 -268.734375 24.515625 C-269.10088648 22.52143834 -269.44550245 20.52252902 -269.734375 18.515625 C-229.22022497 -10.62613204 -175.39578041 -30.88830743 -125.734375 -35.484375 C-124.620625 -35.59394531 -123.506875 -35.70351563 -122.359375 -35.81640625 C-77.90012251 -39.60554709 -33.65071272 -30.57407613 0 0 Z " fill="#010101" transform="translate(478.734375,36.484375)"/>
<path d="M0 0 C2.02572401 0.0853772 4.05179398 0.16292618 6.078125 0.23242188 C11.01902444 0.41884803 15.94318442 0.7113171 20.875 1.0625 C23.10251006 7.34510223 24.81463291 13.62658371 26.2565918 20.13110352 C26.47545736 21.10073375 26.69432293 22.07036398 26.91982079 23.06937695 C27.64237695 26.27574324 28.35831981 29.48354759 29.07421875 32.69140625 C29.58704791 34.97341532 30.10027587 37.25533481 30.61387634 39.53717041 C31.98591599 45.63868984 33.35210749 51.74150395 34.7168045 57.84466934 C36.12617247 64.1446638 37.53974437 70.44371514 38.95263672 76.74291992 C41.20741534 86.79861287 43.45846838 96.85513404 45.70751953 106.91210938 C48.09782067 117.59979964 50.49872233 128.28505743 52.90675354 138.96876526 C54.25367069 144.94538203 55.59571066 150.92308847 56.93547344 156.90131283 C57.80024152 160.7595573 58.6670775 164.61730773 59.53915405 168.47390747 C60.33885116 172.01119225 61.13218263 175.54983973 61.92019844 179.08974457 C62.33792314 180.95851307 62.76246783 182.82575305 63.1872406 184.69293213 C63.42789749 185.78015564 63.66855438 186.86737915 63.91650391 187.98754883 C64.12755768 188.92738113 64.33861145 189.86721344 64.55606079 190.83552551 C64.875 193.0625 64.875 193.0625 63.875 195.0625 C-18.955 195.0625 -101.785 195.0625 -187.125 195.0625 C-185.92850447 189.67827009 -184.74773542 184.47752152 -183.23999023 179.20092773 C-183.06218018 178.57848175 -182.88437012 177.95603577 -182.70117188 177.31472778 C-181.0666162 171.63048222 -179.35920876 165.96825904 -177.62736416 160.31297207 C-176.47101411 156.53250008 -175.34106456 152.74816283 -174.26977539 148.94262695 C-166.72700342 122.24939673 -166.72700342 122.24939673 -160.01757812 117.47412109 C-156.52219413 115.6058366 -152.94312706 114.49924995 -149.09683228 113.59133911 C-146.16200292 112.80422726 -143.71411552 111.38530897 -141.1015625 109.859375 C-140.21629883 109.36058838 -139.33103516 108.86180176 -138.41894531 108.34790039 C-137.09781738 107.5878772 -137.09781738 107.5878772 -135.75 106.8125 C-134.7815918 106.25876709 -133.81318359 105.70503418 -132.81542969 105.13452148 C-109.41226147 91.65142776 -87.41560487 76.40650633 -67.44921875 58.1640625 C-65.41934985 56.32865163 -63.3479064 54.56868556 -61.25 52.8125 C-52.62200389 45.22193829 -45.26116161 36.57570472 -38.5 27.3125 C-38.01055908 26.64758545 -37.52111816 25.9826709 -37.0168457 25.29760742 C-36.524021 24.60642822 -36.03119629 23.91524902 -35.5234375 23.203125 C-34.71447021 22.08248657 -34.71447021 22.08248657 -33.88916016 20.93920898 C-32.41091145 18.52871846 -31.35886881 16.32752127 -30.27880859 13.73461914 C-23.5951607 -1.29484399 -15.36384975 -1.12689911 0 0 Z " fill="#020202" transform="translate(584.125,431.9375)"/>
<path d="M0 0 C2.49788987 3.02870825 3.87423917 5.87991493 5.19921875 9.56640625 C5.59971436 10.67717529 6.00020996 11.78794434 6.4128418 12.93237305 C6.833479 14.13031494 7.25411621 15.32825684 7.6875 16.5625 C7.90620758 17.18291168 8.12491516 17.80332336 8.35025024 18.4425354 C20.23634617 52.24198557 28.15161737 86.39083616 32 122 C32.1023999 122.88582764 32.2047998 123.77165527 32.31030273 124.68432617 C35.37429735 155.02420458 34.29008875 186.97350556 29 217 C28.80164551 218.14227051 28.60329102 219.28454102 28.39892578 220.46142578 C18.56139193 274.7361253 -6.98604802 323.39992118 -44 364 C-45.54198029 365.728887 -47.08364901 367.45805194 -48.625 369.1875 C-54.07067207 375.22776018 -59.70734188 380.85185862 -65.87890625 386.1484375 C-67.28581946 387.37657169 -68.66939747 388.63199376 -70.02734375 389.9140625 C-133.93668758 449.89225162 -227.75756227 483.71900435 -314 491 C-315.53793213 491.13027588 -315.53793213 491.13027588 -317.10693359 491.26318359 C-328.15336697 492.10133417 -339.17586837 492.24309644 -350.25 492.25 C-351.23221527 492.25067474 -352.21443054 492.25134949 -353.22640991 492.25204468 C-387.58671104 492.21489766 -421.44569868 488.4901154 -455 481 C-455 480.67 -455 480.34 -455 480 C-453.51512085 480.05329468 -453.51512085 480.05329468 -452.00024414 480.10766602 C-352.85896556 483.58539317 -260.71451002 457.70460634 -144 373 C-143.45730469 372.54222168 -142.91460937 372.08444336 -142.35546875 371.61279297 C-127.17984044 358.76314095 -111.93187264 345.35568602 -98.96484375 330.2421875 C-97.06867141 328.07836459 -95.11697869 325.97473555 -93.15014648 323.87524414 C-87.20171282 317.50155192 -81.76273489 310.83160867 -76.46533203 303.91113281 C-74.93167092 301.91088303 -73.38642331 299.91996178 -71.83984375 297.9296875 C-35.25156663 250.68558855 -9.34813638 200.13669889 0.75 140.8125 C0.94875732 139.65089355 1.14751465 138.48928711 1.35229492 137.29248047 C4.3598097 118.69049237 5.37523338 100.20188016 5.3125 81.375 C5.31167419 80.31904633 5.31084839 79.26309265 5.30999756 78.17514038 C5.26921281 55.35220803 3.95207145 32.77074351 0.38037109 10.20776367 C-0.02635804 6.77771611 -0.06260955 3.45087506 0 0 Z " fill="#040404" transform="translate(549,75)"/>
<path d="M0 0 C4.90683967 4.15630764 9.68218784 8.41660114 14.375 12.8125 C15.03056885 13.42488525 15.6861377 14.03727051 16.36157227 14.66821289 C20.67815086 18.71630381 24.88543035 22.85491631 29.0390625 27.0703125 C30.90352277 28.90506026 32.82296435 30.61530428 34.8125 32.3125 C38.38898866 35.37500227 41.69389187 38.65280945 45 42 C48.22397204 45.26383568 51.43517926 48.46830208 54.9375 51.4375 C59.2786307 55.12610166 63.21834341 59.19243757 67.22021484 63.23974609 C70.66020488 66.70370123 74.18544944 69.97117384 77.91015625 73.12890625 C81.27496075 76.14150691 84.40545188 79.38572042 87.57836914 82.59790039 C90.30324079 85.34341827 93.05032325 87.99277476 96 90.5 C100.0895362 93.97610577 103.8096054 97.78249656 107.578125 101.59765625 C110.30308001 104.34325486 113.05023473 106.99269952 116 109.5 C120.08795909 112.97476522 123.80672837 116.77950812 127.57373047 120.59326172 C130.34100204 123.38154389 133.13574023 126.07142182 136.125 128.625 C139.33428508 131.39326281 142.47888469 134.21673591 145.5625 137.125 C146.43003906 137.93195313 147.29757812 138.73890625 148.19140625 139.5703125 C150 142 150 142 150.046875 144.3984375 C148.69104905 147.76776616 146.82407474 150.59122821 144.6875 153.5 C144.24164551 154.11020996 143.79579102 154.72041992 143.33642578 155.34912109 C133.30986545 168.80463318 119.45382425 184.55245008 103 190 C99.78088118 188.92696039 99.35795137 188.5038629 97.46875 185.89453125 C96.99381104 185.24814697 96.51887207 184.6017627 96.02954102 183.93579102 C95.52479248 183.23510498 95.02004395 182.53441895 94.5 181.8125 C93.41673648 180.33753312 92.33207459 178.86359233 91.24609375 177.390625 C90.70065918 176.64876953 90.15522461 175.90691406 89.59326172 175.14257812 C87.30778863 172.06913163 84.94349593 169.06218682 82.5625 166.0625 C76.83706407 158.82546616 71.23750561 151.4950279 65.64404297 144.15576172 C63.52378567 141.37556096 61.39880986 138.59898797 59.27368164 135.82250977 C50.47596662 124.32738851 41.70856848 112.80916714 32.93847656 101.29296875 C25.61129715 91.67191226 18.28173378 82.05277202 10.93066406 72.44995117 C7.99063662 68.6079724 5.05659752 64.76154603 2.12890625 60.91015625 C0.77348074 59.12757129 -0.58198846 57.34501954 -1.9375 55.5625 C-2.60483154 54.68464844 -3.27216309 53.80679688 -3.9597168 52.90234375 C-9.10493581 46.14585714 -14.30897479 39.43689116 -19.57202148 32.77172852 C-22.30007295 29.29414522 -24.84349511 25.87414211 -27 22 C-26.33355469 21.59910156 -25.66710937 21.19820312 -24.98046875 20.78515625 C-15.69176076 15.05603706 -6.57497873 8.84221277 0 0 Z " fill="#030303" transform="translate(195,146)"/>
<path d="M0 0 C12.47028112 10.42649625 20.16707061 23.14346097 21.875 39.4375 C22.61230103 54.88395656 18.30949342 68.4381603 8 80 C7.47792969 80.61488281 6.95585937 81.22976562 6.41796875 81.86328125 C-3.11269304 92.32150137 -16.07654428 96.63456804 -29.75 98.34375 C-44.1976624 98.91405246 -57.77426307 93.38502351 -68.8125 84.3125 C-79.04876302 74.56547014 -85.31526885 61.87669103 -86.203125 47.7734375 C-86.43677396 30.833888 -81.57448441 16.79559743 -69.69921875 4.4765625 C-50.2442497 -13.37358276 -21.63462985 -14.7545488 0 0 Z " fill="#030303" transform="translate(159,46)"/>
<path d="M0 0 C4 1 4 1 4 1 Z " fill="#B0B0B0" transform="translate(90,554)"/>
<path d="" fill="#A9A9A9" transform="translate(0,0)"/>
</svg>
