<?xml version="1.0" encoding="UTF-8"?>
<svg version="1.1" xmlns="http://www.w3.org/2000/svg" width="689" height="683">
<path d="M0 0 C0.01401855 1.09948975 0.01401855 1.09948975 0.02832031 2.22119141 C1.27183466 80.37972525 44.95482317 150.56438098 93.57617188 209.27636719 C95.58840473 211.71230065 97.5730775 214.17042475 99.5625 216.625 C108.77682351 227.84972136 118.3578317 238.64440913 128.32128906 249.20800781 C129.89189566 250.88460066 131.44597371 252.57435822 132.9921875 254.2734375 C138.60957988 260.44555212 144.35957852 266.46203341 150.25 272.375 C150.89952637 273.02911865 151.54905273 273.6832373 152.21826172 274.35717773 C156.07466105 278.20133297 160.04167082 281.85650746 164.18066406 285.39501953 C166.03273245 287.02887589 167.77120324 288.73693365 169.5 290.5 C173.16280049 294.2119656 177.04064892 297.60900738 181 301 C182.07832695 301.93075566 183.15643466 302.86176537 184.234375 303.79296875 C218.7661193 333.57426368 255.64625152 360.60168403 296 382 C296.81452637 382.43521973 297.62905273 382.87043945 298.46826172 383.31884766 C331.57374942 400.87277827 367.74193181 414.39125827 405.625 414.0625 C406.62917969 414.05798828 407.63335937 414.05347656 408.66796875 414.04882812 C411.11204829 414.03718965 413.55597851 414.01992804 416 414 C415.20035104 414.89665092 414.40070208 415.79330183 413.57682133 416.71712399 C410.80201177 419.94529444 408.29094855 423.30759817 405.79934597 426.75827122 C389.14787601 449.60272575 368.71275699 475.04951684 339.46615094 480.14499408 C316.16243203 483.54513489 292.24815221 482.5383176 268.79138542 481.69458413 C257.32932814 481.29358852 245.8709305 481.21816323 234.40285837 481.15581358 C213.96772827 481.03649673 193.54492097 480.67353744 173.11645508 480.14916992 C153.31596032 479.64146174 133.51885539 479.25361063 113.71313477 479.02124023 C112.4849944 479.00679044 111.25685403 478.99234065 109.99149729 478.97745299 C103.82802932 478.90565697 97.664538 478.83615759 91.50103104 478.7677983 C40.65885319 478.20095697 -10.16996226 477.23530006 -61 476 C-62.38088208 424.02967358 -63.43430414 372.06123661 -64.06391977 320.07609533 C-64.13893978 313.90454155 -64.21660127 307.73302366 -64.29589844 301.56152344 C-64.31163706 300.33316632 -64.32737569 299.1048092 -64.34359124 297.83922914 C-64.6029424 278.08650275 -65.07493627 258.34452108 -65.62916777 238.59811804 C-66.19531137 218.25376111 -66.52454166 197.91492557 -66.64530969 177.56301904 C-66.71947313 166.16031664 -66.89519177 154.77994888 -67.34380341 143.38530731 C-70.31830725 65.66105713 -70.31830725 65.66105713 -43.28245282 36.23623395 C-8.83672037 0 -8.83672037 0 0 0 Z " fill="#000000" transform="translate(61,207)"/>
<path d="M0 0 C1.30312134 0.01353516 1.30312134 0.01353516 2.63256836 0.02734375 C44.8563585 1.13677278 86.05372164 33.32057465 115.578125 60.734375 C118.29693008 63.24963317 121.04706969 65.72375299 123.8125 68.1875 C129.70013057 73.48260545 135.21727208 78.96688845 140.375 84.9765625 C142.02369962 86.88590213 143.69062409 88.77096928 145.375 90.6484375 C157.44937088 104.20202063 168.14010436 118.88150136 177.5 134.4375 C177.9031543 135.1068457 178.30630859 135.77619141 178.72167969 136.46582031 C191.69912679 158.28109842 204.76573811 185.87534302 199.8515625 211.8671875 C197.62134305 219.35843745 194.14433701 225.38393984 187.515625 229.7421875 C173.47738027 237.19660427 157.61974244 235.31839074 142.87255859 231.16503906 C108.93297449 220.75755186 78.92884349 199.35716595 52.95703125 175.67578125 C51.34021658 174.20291193 49.712807 172.74157575 48.07421875 171.29296875 C38.62062664 162.9249566 29.64642289 154.09057315 21.5 144.4375 C20.70464844 143.53128906 19.90929687 142.62507812 19.08984375 141.69140625 C-2.74856354 116.65703668 -22.67787367 86.7432864 -31.5 54.4375 C-31.84417969 53.24447266 -31.84417969 53.24447266 -32.1953125 52.02734375 C-35.38793493 39.63906939 -36.15940025 25.53538328 -29.875 14.0625 C-22.82318662 3.42501881 -12.36823598 -0.15694797 0 0 Z M22.75 51.4375 C19.73597972 56.25993244 20.01779024 61.31638409 20.85546875 66.73828125 C24.41128723 82.0831892 32.78114203 96.23025677 42.5 108.4375 C43.29535156 109.45457031 44.09070313 110.47164063 44.91015625 111.51953125 C64.04660141 135.34598638 92.79126243 164.27090059 124.5 169.4375 C131.36866695 170.11111525 135.91397919 169.6270156 141.5 165.4375 C144.83297732 160.33142363 144.08031697 154.26536404 143.5 148.4375 C138.58159952 126.2808221 123.45254154 106.94834678 107.97460938 90.96337891 C106.95365211 89.90692478 105.93976855 88.84360583 104.93164062 87.77490234 C88.61144901 70.48466349 63.70047194 48.02542922 38.66015625 46.234375 C37.63792969 46.21890625 36.61570312 46.2034375 35.5625 46.1875 C34.03302734 46.14882813 34.03302734 46.14882813 32.47265625 46.109375 C28.19410162 46.58164647 25.56097951 48.22495198 22.75 51.4375 Z " fill="#030303" transform="translate(227.5,265.5625)"/>
<path d="M0 0 C9.297333 7.30992145 18.3603648 14.90819909 27.34960938 22.59228516 C29.11938198 24.10182788 30.89539278 25.60382973 32.671875 27.10546875 C43.84103618 36.57545262 43.84103618 36.57545262 48.66796875 41.6953125 C50.17073632 43.24811216 50.17073632 43.24811216 53 45 C51.9123293 48.2630121 51.24933287 48.87839928 48.6875 51 C46.02134477 53.23706334 43.43892143 55.51529069 40.94140625 57.9375 C40.41393799 58.4428125 39.88646973 58.948125 39.34301758 59.46875 C38.2907768 60.48019125 37.24738911 61.50093366 36.21362305 62.53125 C32.58725289 65.97866577 32.58725289 65.97866577 29.95703125 66.07421875 C27.29739386 64.61433794 25.2154236 62.82166139 22.9375 60.8125 C-6.46930497 35.58809933 -43.28314265 11.74347666 -82 5 C-82.69351563 4.87109375 -83.38703125 4.7421875 -84.1015625 4.609375 C-97.02221 2.58886222 -110.62170498 3.57645304 -121.96875 10.50390625 C-132.21114324 18.04782281 -135.01408592 28.95386327 -137 41 C-147.16251221 36.11786424 -157.01011456 30.79730031 -166.79858398 25.20458984 C-174.18018096 20.99838386 -181.6315408 16.94058187 -189.125 12.9375 C-197.47219107 8.47028781 -205.77307057 3.93547441 -214 -0.75 C-214.88445801 -1.25152588 -215.76891602 -1.75305176 -216.68017578 -2.26977539 C-217.89036377 -2.9638147 -217.89036377 -2.9638147 -219.125 -3.671875 C-220.18074219 -4.27660645 -220.18074219 -4.27660645 -221.2578125 -4.89355469 C-223 -6 -223 -6 -225 -8 C-227.02694829 -25.96659714 -226.23615324 -45.14414638 -215 -60 C-164.87200416 -121.2896967 -43.06441502 -33.49005633 0 0 Z " fill="#020202" transform="translate(308,243)"/>
<path d="M0 0 C7.23911327 2.31125178 14.24075899 5.04630204 21.26953125 7.9296875 C22.42692307 8.40189728 23.58431488 8.87410706 24.77677917 9.36062622 C27.83566321 10.60931277 30.89350344 11.86051084 33.9508667 13.11291504 C37.02944725 14.37317394 40.10955171 15.62969136 43.18945312 16.88671875 C56.03979724 22.13520641 56.03979724 22.13520641 59.9046936 23.73919678 C62.04135383 24.60951711 64.19128532 25.44770707 66.35092163 26.25933838 C67.96131821 26.87950836 67.96131821 26.87950836 69.60424805 27.51220703 C71.05120308 28.0509697 71.05120308 28.0509697 72.52738953 28.60061646 C75.52690513 30.29820401 76.48165165 31.94958543 78 35 C78.52871704 35.99507568 78.52871704 35.99507568 79.06811523 37.01025391 C79.5584021 37.98357666 79.5584021 37.98357666 80.05859375 38.9765625 C91.90801437 62.19216484 106.33814499 83.60816424 123.50585938 103.23486328 C124.6418018 104.57683448 125.7472044 105.94472522 126.83789062 107.32373047 C132.78069662 114.80701037 139.26281714 121.57054367 146.03759766 128.29833984 C147.87247269 130.12248747 149.69639332 131.95709873 151.51953125 133.79296875 C158.37578696 140.65692597 165.38740639 146.9760244 173 153 C174.10211504 153.93444128 175.19843132 154.87582936 176.28515625 155.828125 C197.07870733 173.9603355 222.49933027 192.43933134 248.58258057 201.94076538 C256.34062729 204.95418026 259.3429628 208.243898 262.859375 215.671875 C263.59193512 217.11237213 263.59193512 217.11237213 264.33929443 218.58197021 C265.38195696 220.64149395 266.40969002 222.70863315 267.42358398 224.7824707 C269.01172254 228.02392618 270.6442024 231.23917156 272.29101562 234.45117188 C275.08915744 239.92198288 277.84682991 245.41177501 280.58642578 250.91210938 C282.28462481 254.3194732 283.9915964 257.72235052 285.69921875 261.125 C286.78436882 263.2966179 287.86902423 265.46848308 288.953125 267.640625 C289.46232483 268.6549762 289.97152466 269.66932739 290.49615479 270.7144165 C290.95794128 271.64429382 291.41972778 272.57417114 291.89550781 273.53222656 C292.30343567 274.34967346 292.71136353 275.16712036 293.13165283 276.00933838 C294 278 294 278 294 280 C287.01631815 277.83906566 280.56894887 275.07063005 274 271.875 C272.98526611 271.38346436 271.97053223 270.89192871 270.92504883 270.38549805 C267.94488001 268.93387426 264.97102068 267.47024382 262 266 C261.24122559 265.62601074 260.48245117 265.25202148 259.70068359 264.86669922 C240.24445604 255.18691532 221.57720488 243.37695963 204.07470703 230.52148438 C201.83878907 228.88177612 199.58980393 227.26100281 197.33984375 225.640625 C187.19148161 218.29202353 177.42715501 210.57941527 167.83056641 202.52636719 C165.30836797 200.42330176 162.74677909 198.37017503 160.1875 196.3125 C155.28815577 192.31409901 150.64500879 188.08192427 146.01953125 183.7734375 C143.74948707 181.66768295 141.43367214 179.62213236 139.09765625 177.58984375 C128.84108224 168.64914805 119.07256857 159.16466055 109.4375 149.5625 C108.70031738 148.82990967 107.96313477 148.09731934 107.20361328 147.3425293 C103.20468582 143.33222314 99.38759948 139.22540593 95.69067383 134.93579102 C92.92486362 131.76898825 90.01678638 128.73879123 87.125 125.6875 C82.27098043 120.52550214 77.62788255 115.27351594 73.203125 109.734375 C71.16711875 107.20741689 69.08293543 104.73513957 66.97192383 102.27124023 C61.06298319 95.36945837 55.42717435 88.28695988 50 81 C49.53432617 80.37625488 49.06865234 79.75250977 48.58886719 79.10986328 C0 13.70673316 0 13.70673316 0 0 Z " fill="#040404" transform="translate(108,306)"/>
<path d="M0 0 C4.17707661 2.08853831 6.63376296 4.53957677 9.6875 7.9375 C10.21786865 8.52015625 10.7482373 9.1028125 11.29467773 9.703125 C15.25931135 14.09273291 19.04519157 18.60811453 22.74609375 23.22265625 C24.7142408 25.64787731 26.73302157 28.01779676 28.77856445 30.37768555 C36.68531946 39.53747843 43.82758599 49.26210493 51 59 C51.57572754 59.77569336 52.15145508 60.55138672 52.74462891 61.35058594 C61.06266245 72.56531486 68.73266961 84.07851285 76 96 C76.42877441 96.69915527 76.85754883 97.39831055 77.29931641 98.11865234 C99.22092908 134.0160415 120.06822867 174.66293758 120.4375 217.5625 C120.44789307 218.62090088 120.45828613 219.67930176 120.46899414 220.76977539 C120.29725052 235.85360336 115.89603309 248.75363408 105.44140625 259.7421875 C97.66734836 266.93163624 87.57013159 271.22993489 77.02636719 272.30249023 C74 272 74 272 72.15625 270.33862305 C71.6096875 269.50886963 71.063125 268.67911621 70.5 267.82421875 C69.48099609 266.31093994 69.48099609 266.31093994 68.44140625 264.76708984 C68.06000488 264.17829041 67.67860352 263.58949097 67.28564453 262.98284912 C65.8442296 260.75975536 64.37456193 258.55681537 62.90234375 256.35400391 C59.24031102 250.85840486 55.6201135 245.33576251 52 239.8125 C49.4139244 235.8755367 46.82603267 231.93976818 44.23828125 228.00390625 C43.60924393 227.04660614 42.9802066 226.08930603 42.33210754 225.10299683 C35.27476868 214.3663037 28.15298215 203.67319825 21 193 C22.31145073 190.37709855 23.43465654 190.25907748 26.125 189.1875 C35.99712291 184.88506926 40.80937507 179.55674326 45.0390625 169.5390625 C49.8344154 154.97373826 46.98995471 139.37194526 43 125 C42.68417969 123.81664062 42.36835938 122.63328125 42.04296875 121.4140625 C31.98275798 87.8800266 10.55907482 56.68344313 -12.24609375 30.48754883 C-15.17407549 27.09797295 -17.47985837 23.78021245 -20 20 C-13.4 13.4 -6.8 6.8 0 0 Z " fill="#030303" transform="translate(397,327)"/>
<path d="M0 0 C2.05566555 1.03585676 3.39015171 2.1760043 4.99422646 3.82820129 C5.85467567 4.70315247 5.85467567 4.70315247 6.73250771 5.59577942 C7.31903114 6.20743958 7.90555458 6.81909973 8.50985146 7.44929504 C9.11184364 8.06482239 9.71383583 8.68034973 10.33407021 9.31452942 C11.81619526 10.83194317 13.28894816 12.35850101 14.75985146 13.88679504 C8.940581 20.99771976 2.41187272 27.40561171 -4.0668087 33.90632629 C-5.37170637 35.219136 -6.67642472 36.53212396 -7.98097801 37.84527588 C-12.24331954 42.13367471 -16.51097312 46.41676604 -20.77921104 50.69929504 C-22.25076937 52.17621671 -23.7223206 53.65314546 -25.19386482 55.13008118 C-31.30999237 61.26779899 -37.42754353 67.40409195 -43.54882812 73.53666687 C-52.3177516 82.3218745 -61.07804245 91.11549513 -69.82667315 99.92091274 C-75.98454262 106.1173902 -82.15188054 112.30434016 -88.32643354 118.48419285 C-92.01371295 122.17513355 -95.69665167 125.87017978 -99.36956215 129.57542419 C-102.81759837 133.05338563 -106.27714598 136.51945615 -109.74608612 139.97656441 C-111.01949998 141.24975634 -112.28861001 142.52726899 -113.55314636 143.80927849 C-115.27427553 145.55289662 -117.0099479 147.28057073 -118.7503109 149.00495911 C-119.50293896 149.7784103 -119.50293896 149.7784103 -120.27077162 150.56748676 C-121.68760681 151.95228577 -121.68760681 151.95228577 -124.24014854 153.88679504 C-127.60743701 153.71663055 -129.17424701 152.31467363 -131.47452354 149.94538879 C-132.04815636 149.36208801 -132.62178917 148.77878723 -133.21280479 148.17781067 C-133.79932823 147.56615051 -134.38585167 146.95449036 -134.99014854 146.32429504 C-135.59214073 145.7087677 -136.19413292 145.09324036 -136.81436729 144.45906067 C-138.29649235 142.94164692 -139.76924524 141.41508908 -141.24014854 139.88679504 C-135.42087809 132.77587032 -128.89216981 126.36797838 -122.41348839 119.86726379 C-121.10859072 118.55445409 -119.80387237 117.24146612 -118.49931908 115.92831421 C-114.23697754 111.63991538 -109.96932397 107.35682404 -105.70108604 103.07429504 C-104.22952772 101.59737337 -102.75797649 100.12044463 -101.28643227 98.64350891 C-95.17030472 92.50579109 -89.05275356 86.36949814 -82.93146896 80.23692322 C-74.16254549 71.45171559 -65.40225464 62.65809496 -56.65362394 53.85267735 C-50.49575447 47.65619989 -44.32841655 41.46924993 -38.15386355 35.28939724 C-34.46658414 31.59845654 -30.78364542 27.90341031 -27.11073494 24.19816589 C-23.66269872 20.72020446 -20.20315111 17.25413394 -16.73421097 13.79702568 C-15.46079711 12.52383375 -14.19168708 11.2463211 -12.92715073 9.9643116 C-11.20602156 8.22069347 -9.47034919 6.49301935 -7.72998619 4.76863098 C-7.22823415 4.25299685 -6.72648211 3.73736273 -6.20952547 3.20610332 C-2.78524428 -0.14075114 -2.78524428 -0.14075114 0 0 Z " fill="#0B0B0B" transform="translate(464.2401485443115,0.1132049560546875)"/>
<path d="M0 0 C3.92850364 1.82351595 6.75642069 4.35468755 9.8125 7.375 C10.5849707 8.09816406 10.5849707 8.09816406 11.37304688 8.8359375 C12.83203125 10.2734375 12.83203125 10.2734375 15 13 C14.92953276 17.32354009 11.5243695 19.88357934 8.64073181 22.72003174 C7.79415484 23.57045363 7.79415484 23.57045363 6.93047529 24.43805575 C5.03354742 26.33993323 3.12608023 28.23087581 1.21850586 30.12207031 C-0.14187448 31.48160463 -1.50159496 32.8417995 -2.86070251 34.2026062 C-6.55631629 37.89908234 -10.26112109 41.58622205 -13.96760869 45.2717905 C-17.83803622 49.12349162 -21.69999595 52.9836637 -25.56285095 56.84295654 C-32.88084722 64.15162048 -40.20645873 71.45260208 -47.53481716 78.75087428 C-55.87673762 87.05928772 -64.21016301 95.37619941 -72.54287541 103.69384623 C-89.68579505 120.80538994 -106.83938873 137.9062 -124 155 C-126.79570164 153.65272739 -128.83967803 152.40293767 -131.015625 150.1796875 C-131.54414063 149.64472656 -132.07265625 149.10976562 -132.6171875 148.55859375 C-133.15601563 148.00300781 -133.69484375 147.44742188 -134.25 146.875 C-134.80429687 146.31167969 -135.35859375 145.74835938 -135.9296875 145.16796875 C-137.29104485 143.78313972 -138.64614859 142.39216796 -140 141 C-136.2327186 136.50351682 -132.35063609 132.2063387 -128.1913147 128.07106018 C-127.63899213 127.51788319 -127.08666957 126.9647062 -126.51760995 126.39476627 C-124.68678956 124.56231332 -122.8524452 122.73343127 -121.01806641 120.90454102 C-119.6967862 119.58354319 -118.37572677 118.26232453 -117.05487061 116.94090271 C-113.48319492 113.36894103 -109.90845232 109.80006317 -106.33313799 106.23174405 C-102.59174654 102.4966191 -98.85320141 98.75864741 -95.11434937 95.02098083 C-88.0404435 87.95017858 -80.96399317 80.88192854 -73.88661802 73.81459898 C-65.82661184 65.76578409 -57.76945717 57.71411731 -49.71253705 49.66221344 C-33.14485528 33.10497409 -16.57360784 16.55130728 0 0 Z " fill="#050505" transform="translate(626,45)"/>
<path d="M0 0 C1.11674511 0.95042087 2.23252489 1.90197608 3.34790039 2.85400391 C3.9693544 3.38377838 4.59080841 3.91355286 5.23109436 4.4593811 C7.39444368 6.34353861 9.42699013 8.32921803 11.4375 10.375 C12.11683594 11.06335938 12.79617188 11.75171875 13.49609375 12.4609375 C13.99238281 12.96882812 14.48867188 13.47671875 15 14 C13.39141036 18.0095647 10.57405613 20.69977399 7.55844116 23.68206787 C6.71670788 24.52636443 6.71670788 24.52636443 5.85796988 25.38771749 C3.97562709 27.27335563 2.08622302 29.15175458 0.19677734 31.03027344 C-1.15368372 32.3801704 -2.50370463 33.73050783 -3.85331726 35.08125305 C-7.52010416 38.7486145 -11.19303117 42.4097706 -14.86707354 46.06986141 C-18.70502028 49.89531785 -22.5373157 53.72642706 -26.37020874 57.5569458 C-33.62995763 64.81047493 -40.89479039 72.05889013 -48.1614536 79.30549169 C-56.4337207 87.55541524 -64.70031924 95.81100877 -72.96644139 104.0670886 C-89.97131802 121.05105199 -106.9833175 138.02786582 -124 155 C-126.79570164 153.65272739 -128.83967803 152.40293767 -131.015625 150.1796875 C-131.54414062 149.64472656 -132.07265625 149.10976563 -132.6171875 148.55859375 C-133.15601563 148.00300781 -133.69484375 147.44742188 -134.25 146.875 C-134.80429687 146.31167969 -135.35859375 145.74835938 -135.9296875 145.16796875 C-137.29104485 143.78313972 -138.64614859 142.39216796 -140 141 C-136.2327186 136.50351682 -132.35063609 132.2063387 -128.1913147 128.07106018 C-127.63899213 127.51788319 -127.08666957 126.9647062 -126.51760995 126.39476627 C-124.68678956 124.56231332 -122.8524452 122.73343127 -121.01806641 120.90454102 C-119.6967862 119.58354319 -118.37572677 118.26232453 -117.05487061 116.94090271 C-113.48319492 113.36894103 -109.90845232 109.80006317 -106.33313799 106.23174405 C-102.59174654 102.4966191 -98.85320141 98.75864741 -95.11434937 95.02098083 C-88.0404435 87.95017858 -80.96399317 80.88192854 -73.88661802 73.81459898 C-65.82661184 65.76578409 -57.76945717 57.71411731 -49.71253705 49.66221344 C-33.14485528 33.10497409 -16.57360784 16.55130728 0 0 Z " fill="#050505" transform="translate(674,210)"/>
<path d="M0 0 C14.18934618 3.42501459 24.78159687 13.15398765 35 23 C35.65742188 23.59425781 36.31484375 24.18851562 36.9921875 24.80078125 C46.30378718 33.44726666 56.86073343 47.8601 57.375 60.875 C57.31027951 64.56406783 57.08145701 65.86423831 55.125 69.125 C50.62823976 71.82305614 47.11597843 71.78649742 42 71 C29.46140873 67.78036173 19.13529532 58.7534341 10 50 C9.17757813 49.25234375 8.35515625 48.5046875 7.5078125 47.734375 C-2.77164655 38.06335745 -13.68171433 24.29565253 -14.5625 9.6875 C-14.38492245 6.16369555 -13.99211362 4.98728003 -12.0625 1.875 C-7.81457089 -0.72577292 -4.85536878 -0.79286737 0 0 Z " fill="#060606" transform="translate(289,337)"/>
<path d="M0 0 C2.82678062 0.61732044 5.18075324 1.48167811 7.73828125 2.828125 C8.46362061 3.20880127 9.18895996 3.58947754 9.9362793 3.98168945 C10.72043213 4.40023193 11.50458496 4.81877441 12.3125 5.25 C13.56123901 5.91165161 13.56123901 5.91165161 14.83520508 6.58666992 C22.32340804 10.58236229 29.70607385 14.75795468 37.0793457 18.9609375 C43.1470578 22.41232448 49.25116675 25.78284254 55.40234375 29.08325195 C58.44065158 30.71806655 61.46443227 32.37769779 64.48828125 34.0390625 C67.83682079 35.86972802 71.19091233 37.57698075 74.66796875 39.1484375 C80.50677717 41.93067931 84.67667378 44.33698947 87.015625 50.70703125 C88.5823879 55.95590916 90 61.49172274 90 67 C80.72544208 64.60770795 72.03919913 60.7981842 63.25 57.0625 C60.04712202 55.70464103 56.84277772 54.35033156 53.63671875 53 C52.83225815 52.66110245 52.02779755 52.3222049 51.19895935 51.97303772 C45.88543268 49.74953724 40.53686091 47.6490738 35.14453125 45.625 C33.76455579 45.1004227 32.38467075 44.57560746 31.00488281 44.05053711 C29.0561332 43.30971752 27.10644461 42.57821996 25.14343262 41.87600708 C13.11988439 37.5730767 13.11988439 37.5730767 9.81469727 30.92114258 C9.41142212 29.970177 9.41142212 29.970177 9 29 C8.52433594 28.07316406 8.04867187 27.14632813 7.55859375 26.19140625 C3.93281733 17.68915004 1.9106647 9.00894415 0 0 Z " fill="#080808" transform="translate(87,253)"/>
<path d="M0 0 C3.3434332 0.18720688 6.6671247 0.48989191 10 0.8125 C11.40185547 0.88887695 11.40185547 0.88887695 12.83203125 0.96679688 C16.93742319 1.41178691 19.90805321 1.98187156 22.98266602 4.84863281 C24.71735532 7.18310752 26.28690807 9.57143746 27.79815674 12.05563354 C29.17179344 14.27793091 30.61109419 16.4487106 32.06201172 18.62133789 C35.07559173 23.13616749 38.05723204 27.67101985 41.03042603 32.21252441 C44.24549228 37.12256047 47.46958393 42.02665149 50.6953125 46.9296875 C51.32659561 47.8892334 51.95787872 48.8487793 52.60829163 49.83740234 C59.9470476 60.97718137 67.4303333 72.01583754 75 83 C74.67 83.66 74.34 84.32 74 85 C46.5103192 80.96818015 46.5103192 80.96818015 37 74 C34.89868164 71.02441406 34.89868164 71.02441406 33.16015625 67.515625 C32.83588654 66.87513214 32.51161682 66.23463928 32.17752075 65.57473755 C31.12027124 63.4753587 30.09157632 61.36331091 29.0625 59.25 C28.3284077 57.77984706 27.59245729 56.3106206 26.85473633 54.84228516 C24.93541209 51.01141699 23.0391372 47.16959189 21.14733887 43.32507324 C18.90938879 38.78988491 16.64095116 34.26992467 14.37602234 29.74816895 C12.63703325 26.27562856 10.90149183 22.80154081 9.17797852 19.32128906 C5.53584316 11.93287138 5.53584316 11.93287138 1.55078125 4.7265625 C0 2 0 2 0 0 Z " fill="#070707" transform="translate(382,517)"/>
<path d="M0 0 C3.36335594 1.45745424 5.54534005 3.31117854 8.109375 5.9140625 C8.86347656 6.67460937 9.61757813 7.43515625 10.39453125 8.21875 C11.17183594 9.0128125 11.94914062 9.806875 12.75 10.625 C13.54277344 11.42679687 14.33554687 12.22859375 15.15234375 13.0546875 C17.10614493 15.03202846 19.05512103 17.01388909 21 19 C13.66666667 26.33333333 6.33333333 33.66666667 -1 41 C-6.06623768 36.76183463 -10.80038069 32.32591037 -15.4375 27.625 C-16.39172852 26.66400391 -16.39172852 26.66400391 -17.36523438 25.68359375 C-18.91250332 24.12469121 -20.45736492 22.56348584 -22 21 C-17.51105928 16.43909229 -12.85457223 12.06508074 -8.1875 7.6875 C-7.00510742 6.57665039 -7.00510742 6.57665039 -5.79882812 5.44335938 C-3.8665536 3.6281924 -1.93359446 1.81376068 0 0 Z " fill="#080808" transform="translate(370,297)"/>
</svg>
