<?xml version="1.0" encoding="UTF-8"?>
<svg version="1.1" xmlns="http://www.w3.org/2000/svg" width="667" height="627">
<path d="M0 0 C-0.0314209 1.81866577 -0.0314209 1.81866577 -0.06347656 3.67407227 C-1.07332661 35.626212 -1.07332661 35.626212 4 67 C4.3700415 68.32813721 4.3700415 68.32813721 4.74755859 69.68310547 C15.84273251 108.04965838 39.37754681 139.9197819 74.48046875 159.61328125 C87.5800403 166.687107 101.47962675 171.77255542 116 175 C116.73138184 175.16371094 117.46276367 175.32742188 118.21630859 175.49609375 C129.62753344 177.91159028 141.00329089 178.26110048 152.625 178.25 C153.31386292 178.24940582 154.00272583 178.24881165 154.71246338 178.24819946 C162.52731116 178.22243674 170.24363257 177.98880462 178 177 C176.09240777 180.96645205 173.6703917 184.50271774 171.1875 188.125 C168.37623941 192.26994723 165.69902279 196.30110945 163.625 200.875 C157.27889831 214.27974812 146.91633006 226.10388055 137 237 C136.25363281 237.83015625 135.50726563 238.6603125 134.73828125 239.515625 C120.51077988 254.55838061 102.47219933 264.38652775 82 267 C82.87145526 262.38128715 85.31894668 258.69184332 87.625 254.65625 C90.38551724 249.3234326 90.67358444 243.92572256 90 238 C88.51093337 233.96772552 86.62285031 231.41523354 83 229 C79.4459574 228.37281601 77.08305727 228.31211227 73.9765625 230.28515625 C65.97242116 237.01660845 61.25457787 244.86482642 57.3125 254.4375 C56.4392389 256.49367515 55.56552538 258.54965821 54.69140625 260.60546875 C53.79425598 262.73697292 52.89712054 264.86848332 52 267 C28.63496721 322.1730399 28.63496721 322.1730399 10.0078125 341.87109375 C8.27390349 343.70957704 6.69863926 345.58870676 5.125 347.5625 C-3.17999558 357.28597968 -15.58528396 366.5401611 -28 370 C-30.72375853 370.20627431 -33.26216085 370.14666995 -36 370 C-35.36771484 368.75283203 -35.36771484 368.75283203 -34.72265625 367.48046875 C-34.17480469 366.39378906 -33.62695312 365.30710937 -33.0625 364.1875 C-32.51722656 363.10855469 -31.97195313 362.02960938 -31.41015625 360.91796875 C-27.78630121 353.41929918 -27.91624223 344.06624113 -29.6484375 335.96875 C-33.23527416 326.03597156 -40.90996472 320.7203881 -50 316 C-55.08733929 313.67057512 -58.61545126 313.6034079 -64 315 C-74.89937465 319.5010124 -81.08253982 324.40727604 -87 334.5 C-87.50789062 335.3353125 -88.01578125 336.170625 -88.5390625 337.03125 C-94.6581779 347.32391591 -98.53967289 358.3082239 -102.3125 369.625 C-105.98095544 380.38432535 -110.00264925 390.78950382 -115 401 C-115.38800781 401.79519043 -115.77601563 402.59038086 -116.17578125 403.40966797 C-121.26398225 413.71731326 -126.63865779 423.1258682 -134 432 C-134.60972656 432.79535156 -135.21945313 433.59070313 -135.84765625 434.41015625 C-146.28935565 447.33480752 -162.81530525 454.69014551 -179 457 C-211.94678091 459.33038206 -239.910769 447.58680239 -267.58203125 430.4453125 C-276.89994144 424.87564082 -285.55871147 419.73876466 -296.6875 421.625 C-303.57023009 424.4819823 -307.98912935 429.25223315 -311 436 C-312.23119802 440.29441869 -313.17694857 444.61039235 -314 449 C-314.66 449 -315.32 449 -316 449 C-320.65371774 432.55101026 -322.33969593 417.1130194 -314.375 401.25 C-306.09150505 387.23334722 -292.28998254 381.00147887 -278.3125 373.8125 C-277.68393097 373.48740448 -277.05536194 373.16230896 -276.40774536 372.82736206 C-267.83087302 368.39233757 -259.18563523 364.15182611 -250.4375 360.0625 C-238.8970378 354.62931741 -229.23707323 348.57337759 -219.9609375 339.6875 C-218 338 -218 338 -216 338 C-215.58814453 337.09894531 -215.58814453 337.09894531 -215.16796875 336.1796875 C-214 334 -214 334 -211.3125 331.125 C-202.42582054 320.99374872 -198.47940525 308.2096486 -198.75 294.93359375 C-199.25277842 289.03380319 -200.64438735 284.63368704 -204.4375 280.0625 C-209.5239664 275.96851485 -213.4859627 275.43646643 -219.9609375 275.5625 C-226.4324736 276.49413502 -230.23315401 280.84130521 -234.25 285.6875 C-240.97407937 295.26200432 -243.01269252 307.27560951 -243.65625 318.71484375 C-244 321 -244 321 -246 323 C-252.98675441 302.16450025 -248.78313958 279.892085 -239.3203125 260.5703125 C-226.52318718 236.72836533 -205.89968336 223.33242812 -182 212 C-180.91589844 211.47535156 -179.83179688 210.95070313 -178.71484375 210.41015625 C-161.86431126 202.69126105 -144.0829794 198.80196802 -125.875 195.9375 C-90.8840881 191.39090831 -90.8840881 191.39090831 -63 172 C-57.36450469 164.09844237 -51.89791505 156.10244539 -53 146 C-54.6651729 140.82919995 -56.42920157 137.97101898 -61 135 C-67.55748826 132.81417058 -73.99186262 133.56410659 -80.2578125 136.375 C-92.28293626 143.50099927 -98.6871967 153.35199698 -104 166 C-104.33 166 -104.66 166 -105 166 C-108.28667506 153.67496852 -105.91045889 137.14927473 -100 126 C-93.3467592 116.57457554 -84.49760294 111.29829206 -74.43823242 106.12548828 C-66.82937512 102.19790329 -60.37165033 97.79614643 -54 92 C-53.28328125 91.37609375 -52.5665625 90.7521875 -51.828125 90.109375 C-41.99900384 81.04220122 -36.34086464 69.78522862 -34.6875 56.6875 C-32.30184394 39.58432497 -27.54665503 19.86492724 -13.33691406 8.69238281 C-1.81360908 0 -1.81360908 0 0 0 Z " fill="#020202" transform="translate(320,170)"/>
<path d="M0 0 C-0.18175781 0.65701904 -0.36351562 1.31403809 -0.55078125 1.9909668 C-2.45317181 8.91091247 -4.25836117 15.85048019 -6 22.8125 C-6.37125 24.27913086 -6.37125 24.27913086 -6.75 25.77539062 C-9.95014674 38.55097643 -12.60695254 51.29110879 -14.1875 64.375 C-14.27404846 65.08755951 -14.36059692 65.80011902 -14.44976807 66.53427124 C-17.4272161 91.82243819 -17.9589676 118.79376336 -14 144 C-13.77401123 145.46107178 -13.77401123 145.46107178 -13.54345703 146.95166016 C-7.71527021 183.20287019 4.89354153 219.57630964 27.3125 249.0390625 C28.055 250.01617187 28.7975 250.99328125 29.5625 252 C30.24441406 252.86625 30.92632813 253.7325 31.62890625 254.625 C33 257 33 257 33.07421875 258.9609375 C31.41110288 262.11783381 28.87990499 264.28340717 26.25 266.625 C25.66726318 267.15134033 25.08452637 267.67768066 24.48413086 268.2199707 C14.38720412 277.22563126 3.57653449 285.01395676 -8 292 C-8.66064453 292.4021875 -9.32128906 292.804375 -10.00195312 293.21875 C-28.02911313 304.07235527 -47.47841966 311.46235973 -68 316 C-68.67643555 316.16226074 -69.35287109 316.32452148 -70.04980469 316.49169922 C-92.3593014 321.75665351 -119.33001169 321.32405566 -141 314 C-140.67314209 313.06655762 -140.34628418 312.13311523 -140.00952148 311.17138672 C-112.60408342 232.55293479 -107.10405733 151.26368156 -143.296875 74.37109375 C-146.65203139 67.51086446 -150.62494468 61.07027516 -154.75 54.65234375 C-156.52751261 51.86247769 -157.92111858 49.14469413 -159 46 C-150.22812652 37.26676913 -140.49573401 30.50928898 -130 24 C-129.28457031 23.55624023 -128.56914062 23.11248047 -127.83203125 22.65527344 C-109.50225433 11.48291865 -89.02940107 3.33050553 -68 -1 C-67.23510254 -1.16081055 -66.47020508 -1.32162109 -65.68212891 -1.48730469 C-46.83784552 -5.2851345 -17.86924751 -8.93462376 0 0 Z " fill="#010101" transform="translate(574,4)"/>
<path d="M0 0 C34.69927979 59.47276088 43.57563897 127.04582196 27 194 C18.60071942 225.79856115 18.60071942 225.79856115 13 237 C12.01 237.33 11.02 237.66 10 238 C7.57299381 236.67396654 5.38905457 235.31783925 3.125 233.75 C2.46097168 233.29616943 1.79694336 232.84233887 1.11279297 232.37475586 C-9.77615803 224.80383601 -19.0539458 216.70444777 -27 206 C-27.60199219 205.21238281 -28.20398438 204.42476562 -28.82421875 203.61328125 C-36.31544696 193.42857773 -41.7408725 182.55640092 -45.8125 170.625 C-46.22918945 169.42460083 -46.22918945 169.42460083 -46.65429688 168.19995117 C-51.21962931 154.13322887 -52.55829143 140.00708322 -52.4375 125.3125 C-52.43479095 124.5324057 -52.43208191 123.7523114 -52.42929077 122.94857788 C-52.36118723 109.95438808 -51.24852461 97.62299215 -48 85 C-47.82339844 84.26942383 -47.64679688 83.53884766 -47.46484375 82.78613281 C-40.91173019 56.02758577 -27.20967487 31.98182792 -11 10 C-10.55108398 9.38817871 -10.10216797 8.77635742 -9.63964844 8.14599609 C-3.60864207 0 -3.60864207 0 0 0 Z " fill="#020202" transform="translate(397,70)"/>
<path d="M0 0 C10.40147966 3.13260937 18.7883318 10.10112704 27 17 C27.73863281 17.59167969 28.47726562 18.18335937 29.23828125 18.79296875 C52.70623435 38.34264904 65.7297382 69.74188785 68.68359375 99.625 C72.16356563 142.61405435 59.27256468 186.1050584 34 221 C33.42121094 221.82371094 32.84242188 222.64742187 32.24609375 223.49609375 C29.29958456 227.59280653 29.29958456 227.59280653 28 229 C27.34 229 26.68 229 26 229 C24.37825057 226.86628052 22.89590507 224.74272255 21.4375 222.5 C20.99349854 221.82146973 20.54949707 221.14293945 20.09204102 220.44384766 C5.21626569 197.44127098 -4.98608625 172.783357 -10.75 146 C-11.04825684 144.63234497 -11.04825684 144.63234497 -11.35253906 143.23706055 C-14.61316372 127.20379173 -15.41229012 111.0079555 -15.375 94.6875 C-15.37445618 93.77990936 -15.37391235 92.87231873 -15.37335205 91.93722534 C-15.28798052 60.68475784 -10.23950383 29.58582301 0 0 Z " fill="#030303" transform="translate(598,13)"/>
</svg>
