<?xml version="1.0" encoding="UTF-8"?>
<svg version="1.1" xmlns="http://www.w3.org/2000/svg" width="690" height="688">
<path d="M0 0 C0 141.24 0 282.48 0 428 C-7.26 429.98 -14.52 431.96 -22 434 C-49.34272773 444.86466003 -73.00875034 462.59504377 -85.00830078 490.33056641 C-86.1013805 492.97927966 -87.15409593 495.63995292 -88.1875 498.3125 C-88.5086377 499.14136719 -88.82977539 499.97023438 -89.16064453 500.82421875 C-92.01290422 508.48920602 -93.86413835 515.99051883 -96 524 C-238.56 524 -381.12 524 -528 524 C-528 509.32961373 -528 509.32961373 -527.51953125 503.41015625 C-527.4667955 502.75568008 -527.41405975 502.10120392 -527.35972595 501.42689514 C-527.18506068 499.30468793 -527.00026577 497.18358641 -526.8125 495.0625 C-526.74720093 494.31522644 -526.68190186 493.56795288 -526.61462402 492.79803467 C-518.84214491 404.87850343 -496.56835605 318.189362 -406 180 C-405.04867187 178.89785156 -405.04867187 178.89785156 -404.078125 177.7734375 C-402.39725171 175.83812009 -400.70019787 173.91835784 -399 172 C-398.36989014 171.28505371 -397.73978027 170.57010742 -397.09057617 169.83349609 C-391.70019155 163.77266562 -386.10899328 157.95289562 -380.36108398 152.23071289 C-378.93160283 150.80662508 -377.50759489 149.37721956 -376.08398438 147.94726562 C-370.88477252 142.75528997 -365.60561485 137.74959636 -360 133 C-358.9438329 132.087445 -357.8878335 131.17469586 -356.83203125 130.26171875 C-307.87308263 88.52310666 -250.55400438 57.3758775 -190 36 C-189.36421021 35.77526001 -188.72842041 35.55052002 -188.07336426 35.31896973 C-136.41475416 17.14309193 -82.4385535 6.520755 -28 1.25 C-26.04151123 1.05809082 -26.04151123 1.05809082 -24.04345703 0.86230469 C-22.79161621 0.74790039 -21.53977539 0.63349609 -20.25 0.515625 C-18.61804688 0.36528809 -18.61804688 0.36528809 -16.953125 0.21191406 C-11.30974468 -0.09060904 -5.65148314 0 0 0 Z " fill="#000000" transform="translate(580,54)"/>
<path d="M0 0 C1.28071141 0.00351175 1.28071141 0.00351175 2.58729577 0.00709444 C3.48974157 0.005641 4.39218736 0.00418756 5.32198 0.00269008 C8.38586832 -0.00099755 11.44970775 0.00252919 14.51359582 0.00595194 C16.71638984 0.00480121 18.91918367 0.00321402 21.12197709 0.0012247 C27.2062327 -0.00297525 33.29047275 -0.00087495 39.37472844 0.00221092 C45.25257651 0.00423125 51.13042118 0.00158156 57.00826877 -0.00093645 C69.77922179 -0.00621338 82.55016981 -0.00574136 95.3211233 -0.00285754 C106.49691464 -0.00034618 117.67270415 0.00031668 128.84849572 -0.00088018 C129.9586387 -0.00099476 129.9586387 -0.00099476 131.0912088 -0.00111165 C134.09517611 -0.00142297 137.09914342 -0.00174137 140.10311072 -0.00207142 C168.30706205 -0.00513334 196.51101019 -0.00235233 224.71496102 0.00302548 C249.79579021 0.00777141 274.87661433 0.00734679 299.95744348 0.00256449 C328.10841282 -0.00278522 356.25937935 -0.00491622 384.41034913 -0.00182325 C387.40897775 -0.00150251 390.40760636 -0.00118967 393.40623498 -0.00088018 C394.14462341 -0.0008011 394.88301185 -0.00072203 395.64377569 -0.00064055 C406.81504381 0.00049896 417.98630991 -0.00083714 429.15757775 -0.00335974 C441.85440257 -0.00621245 454.55122159 -0.00551819 467.24804568 -0.00007899 C473.7330833 0.00255927 480.21811058 0.003561 486.70314813 0.00027186 C492.62945553 -0.00268857 498.55574294 -0.00110257 504.48204851 0.00424941 C506.63612695 0.00537469 508.79020705 0.00478 510.94428444 0.00237362 C513.85202596 -0.00062773 516.7596972 0.00241136 519.66743493 0.00709444 C520.52124254 0.00475328 521.37505014 0.00241211 522.2547307 0 C528.01321501 0.01878525 528.01321501 0.01878525 529.12736535 1.13293558 C529.12736535 24.89293558 529.12736535 48.65293558 529.12736535 73.13293558 C352.24736535 73.13293558 175.36736535 73.13293558 -6.87263465 73.13293558 C-6.87263465 0.02241981 -6.87263465 0.02241981 0 0 Z M101.81486535 27.69543558 C98.54770013 32.41467423 98.50301926 36.48780639 99.12736535 42.13293558 C101.29130551 46.54096183 103.50933402 49.36432784 108.12736535 51.13293558 C112.75001949 51.84245924 117.10212411 52.21210498 121.3265841 49.96106058 C125.98954931 46.16812452 127.77838023 42.7752515 128.56486535 36.82043558 C127.98973077 31.97287267 126.38043784 28.76199132 123.12736535 25.13293558 C115.31026076 20.584802 108.06257307 20.7723 101.81486535 27.69543558 Z M252.6937716 27.86340433 C250.19812051 32.18977525 249.55894443 36.03029109 250.37736535 40.94934183 C251.68093113 44.74461927 254.06925048 47.57689928 257.12736535 50.13293558 C262.75731508 52.00958549 268.21766043 52.07042709 273.56486535 49.44543558 C277.97830497 45.46257543 279.32529042 42.68025283 279.68986535 36.75793558 C279.55288197 31.68270133 278.38294447 28.97255988 274.7718966 25.43762308 C271.68237298 22.98655208 269.17836637 22.27306905 265.31486535 21.75793558 C260.27598791 22.35074469 256.00609705 23.86514773 252.6937716 27.86340433 Z M401.12736535 26.13293558 C397.99315141 29.95598775 396.79219256 33.76898547 397.00236535 38.69543558 C397.81801929 43.5978556 400.35288692 46.97814764 404.12736535 50.13293558 C409.75731508 52.00958549 415.21766043 52.07042709 420.56486535 49.44543558 C423.931719 46.40705547 425.85955076 44.38704174 426.40861535 39.76574808 C426.5864424 34.77177192 426.49294838 31.07879155 423.12736535 27.13293558 C419.61430128 23.41322069 416.45319713 22.30442715 411.47111535 21.98059183 C407.35751096 22.24797612 404.30975944 23.52394583 401.12736535 26.13293558 Z " fill="#040404" transform="translate(6.872634649276733,614.8670644164085)"/>
<path d="M0 0 C23.76 0 47.52 0 72 0 C72 176.55 72 353.1 72 535 C48.24 535 24.48 535 0 535 C0 358.45 0 181.9 0 0 Z M25 106 C22.11280566 109.75003403 20.63516147 113.36385722 21 118.125 C22.0356626 123.34432932 24.33312102 126.8634916 28.75 129.875 C33.35396968 131.46868181 37.37995229 131.97077465 41.9609375 130.2734375 C45.9334956 128.21173013 48.27911159 126.1110112 50 122 C51.50866541 116.28862381 50.88532776 112.06584263 48 107 C44.24284186 103.33677081 41.49419195 102.124516 36.25 101.6875 C31.69476653 101.7796095 28.40647113 102.93761686 25 106 Z M23.1875 259.75 C20.6405383 264.57582216 20.59682281 268.600738 22.0625 273.6875 C24.62563344 278.06963136 27.14547074 281.1712657 32.1796875 282.6328125 C37.28362229 283.44050588 40.66219555 283.05618041 45 280 C48.87998781 276.29245609 50.78873873 273.31219547 51.1328125 268.01953125 C50.81234549 263.14654767 48.95409694 259.88428497 45.4375 256.625 C37.53114322 251.35409548 29.76739916 253.39699392 23.1875 259.75 Z M27 403 C23.03791746 406.62488403 21.20403187 409.69772122 20.87109375 414.984375 C21.19323848 420.02154721 23.30122819 423.23467849 26.625 426.875 C30.81239612 429.51150867 34.07974191 430.29202971 39 430 C44.16499412 428.31144423 47.02358368 425.50714471 50 421 C51.43396639 416.67170882 51.18424606 413.61415352 49.875 409.25 C47.16029329 404.54450836 44.31077341 402.23007527 39.1875 400.5625 C34.53015306 399.58709338 31.03397307 400.56065304 27 403 Z " fill="#000000" transform="translate(618,0)"/>
</svg>
