<?xml version="1.0" encoding="UTF-8"?>
<svg version="1.1" xmlns="http://www.w3.org/2000/svg" width="812" height="366">
<path d="M0 0 C186.45 0 372.9 0 565 0 C565 120.78 565 241.56 565 366 C378.55 366 192.1 366 0 366 C0 245.22 0 124.44 0 0 Z M175.5625 44.4375 C174.53839098 44.44389795 173.51428197 44.4502959 172.45913935 44.45688772 C146.63928197 44.61856962 120.81957517 44.79820952 95 45 C94.62393278 65.02052377 94.3429829 85.04031773 94.17100525 105.06365776 C94.08897944 114.36396184 93.97745171 123.6620546 93.79296875 132.9609375 C93.63198811 141.07915032 93.5299231 149.19576034 93.49458408 157.31552517 C93.47396689 161.60412603 93.42661151 165.88814787 93.30831909 170.17525864 C92.71281294 192.6325513 95.16891877 207.24691959 109.03619385 225.38035965 C111.97553358 229.30132351 114.50758124 233.44832028 117.0625 237.625 C118.02352561 239.14612377 118.98677662 240.66584589 119.953125 242.18359375 C125.36888647 250.73000785 130.71030012 259.32329938 136.06787109 267.90625 C137.98762772 270.98018935 139.90946258 274.05281876 141.83203125 277.125 C143.09640914 279.14579894 144.36073245 281.16663203 145.625 283.1875 C146.24213867 284.17395508 146.85927734 285.16041016 147.49511719 286.17675781 C150.5494708 291.06340158 153.59442427 295.95552909 156.62109375 300.859375 C157.20101074 301.79885986 157.78092773 302.73834473 158.37841797 303.70629883 C159.4584048 305.45779386 160.53698285 307.2101588 161.61376953 308.96362305 C162.10345215 309.75808838 162.59313477 310.55255371 163.09765625 311.37109375 C163.51539307 312.05099365 163.93312988 312.73089355 164.36352539 313.43139648 C164.90356201 314.27903564 165.44359863 315.1266748 166 316 C166.25143265 316.7432251 166.5028653 317.4864502 166.76191711 318.25219727 C168.13687482 321.39954208 169.23287846 322.91888003 172 325 C178.87892749 326.85489415 186.41781164 326.20698306 193.47265625 326.1328125 C195.70103401 326.14245505 197.92939777 326.15601418 200.1577301 326.17320251 C206.20053804 326.20745813 212.24181437 326.18464943 218.28455353 326.14650345 C224.60486287 326.11052929 230.92520992 326.10734379 237.24560547 326.09936523 C244.44907466 326.08817389 251.65244902 326.07503013 258.85582805 326.03571552 C275.43132604 325.94571383 291.98061325 326.08694749 308.5533905 326.47961426 C317.31503803 326.68576914 326.07719629 326.80782957 334.84066868 326.90547562 C340.80579275 326.97618726 346.76387097 327.08817971 352.7258606 327.29766846 C376.02051201 329.47179407 376.02051201 329.47179407 397.37609863 322.73553467 C402.58991876 317.2823008 405.35351624 311.2511202 407.76898193 304.18356323 C409.90322316 298.66415448 413.24598788 293.91254899 416.5 289 C417.75521644 287.00326975 419.00584075 285.00363863 420.25 283 C427.75 271 435.25 259 442.75 247 C443.36979736 246.00830811 443.98959473 245.01661621 444.62817383 243.99487305 C445.86753578 242.01192625 447.10695554 240.02901559 448.34643555 238.04614258 C451.28067426 233.35190193 454.21431113 228.65728853 457.14590454 223.96139526 C458.19348279 222.28342022 459.24127127 220.60557643 460.2890625 218.92773438 C461.6110447 216.8107764 462.93267464 214.69359839 464.25390625 212.57617188 C465.14335938 211.15208008 465.14335938 211.15208008 466.05078125 209.69921875 C466.83449097 208.44371216 466.83449097 208.44371216 467.6340332 207.1628418 C468.73104098 205.42586379 469.86042941 203.70935588 471 202 C471.29754381 199.06976236 471.29754381 199.06976236 471.24050903 195.6789093 C471.24221788 195.03522831 471.24392673 194.39154731 471.24568737 193.72836083 C471.24898601 191.56789938 471.23797266 189.40774737 471.22705078 187.24731445 C471.22648675 185.70009366 471.22680307 184.15287233 471.22793579 182.60565186 C471.22851061 178.40137142 471.21673543 174.19720465 471.20278788 169.99295068 C471.19030203 165.60070891 471.18911171 161.20846466 471.18673706 156.81620789 C471.18051597 148.49707189 471.16409666 140.17798834 471.14403808 131.85887545 C471.12169862 122.38861858 471.11069057 112.91835922 471.10064721 103.44808257 C471.07973098 83.96535862 471.0445428 64.48268353 471 45 C443.02096861 44.79112705 415.04180332 44.60598065 387.0625 44.4375 C386.0066752 44.43111716 384.9508504 44.42473432 383.86303091 44.41815805 C314.42602787 43.99994058 244.99937912 44.00192993 175.5625 44.4375 Z " fill="#010101" transform="translate(122,0)"/>
<path d="M0 0 C1.19418226 0.00959692 1.19418226 0.00959692 2.41248941 0.01938772 C22.58767085 0.18188616 42.76266094 0.36179076 62.9375 0.5625 C63.31456821 15.49761649 63.59498867 30.43235958 63.76649475 45.37125206 C63.84831987 52.31115763 63.9598693 59.24804413 64.14453125 66.18603516 C65.65232582 123.98837998 65.65232582 123.98837998 49.03096008 142.12445068 C45.21133175 146.57280025 42.37391126 151.66761339 39.375 156.6875 C38.14359919 158.6641288 36.90844887 160.63843146 35.66796875 162.609375 C34.75023682 164.07407227 34.75023682 164.07407227 33.81396484 165.56835938 C32.88511475 167.05045898 32.88511475 167.05045898 31.9375 168.5625 C29.35298785 172.68676314 26.76988909 176.81190726 24.1875 180.9375 C23.62216553 181.83871582 23.05683105 182.73993164 22.47436523 183.66845703 C21.91048096 184.56935059 21.34659668 185.47024414 20.765625 186.3984375 C20.16959976 187.28159637 19.57357452 188.16475525 18.95948792 189.07467651 C17.33637309 191.64552643 16.37874574 194.11945835 15.45324707 197.01049805 C13.36508348 202.6079994 10.91757769 207.08231537 5.9375 210.5625 C-4.87873639 214.01754193 -16.96972933 213.26658388 -28.20408916 213.17794847 C-31.85221187 213.15930913 -35.4989625 213.19604501 -39.14688897 213.23218095 C-47.76283979 213.31628317 -56.37522058 213.30725113 -64.99121094 213.23876953 C-73.84698362 213.1699321 -82.69184378 213.25419417 -91.54617667 213.41514838 C-99.17791668 213.54862254 -106.80625285 213.58780476 -114.43907571 213.55268991 C-118.98545817 213.53256977 -123.52485629 213.54619226 -128.07024384 213.65019608 C-155.43099429 214.21703972 -155.43099429 214.21703972 -162.98323059 208.25786591 C-167.84603382 202.68915048 -170.86729016 196.52782203 -173.65444183 189.73141098 C-176.05454609 184.32984668 -179.33758152 179.49939296 -182.5625 174.5625 C-183.81252416 172.57147264 -185.05908518 170.578263 -186.30078125 168.58203125 C-186.91904785 167.59283691 -187.53731445 166.60364258 -188.17431641 165.58447266 C-190.08965204 162.51904409 -192.00392841 159.45295623 -193.91796875 156.38671875 C-194.55992187 155.35869141 -195.201875 154.33066406 -195.86328125 153.27148438 C-197.05508175 151.36287633 -198.24653429 149.45405093 -199.4375 147.54492188 C-200.27861328 146.19817383 -200.27861328 146.19817383 -201.13671875 144.82421875 C-201.96996925 143.44236389 -201.96996925 143.44236389 -202.8200531 142.03259277 C-204.41061882 139.47662484 -206.16128864 137.13445517 -208.02967834 134.77514648 C-218.51138276 120.92242238 -218.66065499 108.56905187 -218.234375 91.67578125 C-218.21194125 89.03496696 -218.19488447 86.39410209 -218.18292236 83.7532196 C-218.14598841 77.56542924 -218.04803746 71.38025863 -217.92672849 65.19360942 C-217.79143602 58.13684477 -217.72633447 51.07993828 -217.66638327 44.0221945 C-217.54178317 29.53429349 -217.33145223 15.04843346 -217.0625 0.5625 C-197.20853089 0.35244452 -177.35436748 0.16764095 -157.5 0 C-156.74715556 -0.00638284 -155.99431111 -0.01276568 -155.2186532 -0.01934195 C-103.47454284 -0.45634794 -51.7441236 -0.41746586 0 0 Z M-128.0625 46.5625 C-128.74441406 47.15289062 -129.42632812 47.74328125 -130.12890625 48.3515625 C-145.11864647 62.13860341 -153.02366557 82.84732994 -154.05859375 102.86328125 C-154.08080639 123.89865314 -146.95384706 142.70939782 -133.0625 158.5625 C-132.17304688 159.59503906 -132.17304688 159.59503906 -131.265625 160.6484375 C-118.64504544 174.29376497 -99.32854179 183.07803458 -80.8359375 183.8984375 C-59.73989149 184.25448891 -40.43181571 179.57732509 -24.0625 165.5625 C-23.43601562 165.08941406 -22.80953125 164.61632812 -22.1640625 164.12890625 C-7.24139298 152.30283811 1.39489209 133.08947792 3.9375 114.5625 C6.10649188 92.26749766 -0.206992 71.63440253 -14.07983398 54.08422852 C-26.53067961 39.16240131 -44.74839442 29.04870191 -64.0625 26.5625 C-88.23492069 25.06679097 -109.8006744 29.85276446 -128.0625 46.5625 Z " fill="#010101" transform="translate(479.0625,78.4375)"/>
<path d="M0 0 C16.02011642 0 24.39086422 4.26442202 36.1484375 14.953125 C67.34807107 47.29886756 74.46707316 102.59703189 80 145 C80.17789063 146.29429932 80.17789063 146.29429932 80.359375 147.61474609 C88.13833355 205.18135449 80.47281694 279.98000397 45.9609375 328.4375 C34.68134303 343.17736847 21.48515071 358.39648742 3 364 C2.01 363.67 1.02 363.34 0 363 C0 243.21 0 123.42 0 0 Z " fill="#030303" transform="translate(730,0)"/>
<path d="M0 0 C0 119.79 0 239.58 0 363 C-3.6357289 364.21190963 -4.94160736 363.39787783 -8.29272461 361.80322266 C-8.97987549 361.45565918 -9.66702637 361.1080957 -10.375 360.75 C-11.08599854 360.39083496 -11.79699707 360.03166992 -12.52954102 359.66162109 C-42.20841859 343.99159814 -58.98652162 310.40348367 -68.62890625 279.60546875 C-75.48460079 256.89991161 -79.11987649 233.61681028 -81 210 C-81.05784668 209.31131836 -81.11569336 208.62263672 -81.17529297 207.91308594 C-81.58105953 202.94515469 -81.82809573 197.98120269 -82 193 C-82.03399902 192.1126416 -82.06799805 191.2252832 -82.10302734 190.31103516 C-83.87275196 137.22828003 -75.4756143 61.79423229 -40 20 C-39.44054688 19.28199219 -38.88109375 18.56398438 -38.3046875 17.82421875 C-28.24871008 5.40625594 -15.73022963 0 0 0 Z " fill="#030303" transform="translate(82,0)"/>
</svg>
