<?xml version="1.0" encoding="UTF-8"?>
<svg version="1.1" xmlns="http://www.w3.org/2000/svg" width="621" height="468">
<path d="M0 0 C4.51659766 3.87136942 8.83001446 7.68585824 13.00486755 11.88461304 C13.56621165 12.44510271 14.12755574 13.00559238 14.70591027 13.58306658 C16.56600235 15.44152572 18.42252317 17.30350992 20.27905273 19.16552734 C21.61975474 20.50651172 22.96067758 21.84727535 24.30180359 23.18783569 C27.92748253 26.81322861 31.55007748 30.44168885 35.17211413 34.0707202 C38.96329381 37.86816579 42.75731967 41.66276563 46.55104065 45.45767212 C53.7280907 52.63782595 60.90258855 59.82052432 68.07616621 67.00414717 C76.24589806 75.18506978 84.41848132 83.36314134 92.5913018 91.54097819 C109.39736919 108.35748838 126.1998641 125.17756425 143 142 C141.38169947 146.0548844 138.50047463 148.77874422 135.45800781 151.79595947 C134.88601276 152.3710745 134.31401772 152.94618953 133.72468948 153.53873229 C131.80557143 155.46583182 129.8793786 157.38569888 127.953125 159.30566406 C126.5763666 160.68513219 125.20003411 162.06502551 123.82409668 163.4453125 C120.08507924 167.1934566 116.33975217 170.93523602 112.59300232 174.67564869 C108.67782559 178.58576894 104.76752287 182.50075842 100.85644531 186.41497803 C94.28940307 192.98566007 87.71815189 199.5521107 81.14453125 206.11621094 C73.53471818 213.7151304 65.93214929 221.32124047 58.33328629 228.93110871 C51.81634892 235.45710775 45.29553994 241.97921899 38.77145004 248.49806762 C34.87147397 252.39491898 30.97287764 256.29312487 27.07775879 260.19483185 C23.41827978 263.86006773 19.75398217 267.52041557 16.08583069 271.17697144 C14.73682331 272.5233237 13.38953459 273.87140042 12.04405212 275.22127533 C10.214597 277.05615364 8.37916208 278.88482616 6.54199219 280.7119751 C6.00444935 281.25397938 5.46690651 281.79598366 4.91307449 282.35441232 C1.22830048 286 1.22830048 286 -1 286 C-1 263.23 -1 240.46 -1 217 C-14.66942017 217.00785522 -14.66942017 217.00785522 -28.61499023 217.01586914 C-57.73859174 217.03190284 -86.86219326 217.04303546 -115.98579803 217.05106533 C-120.50591289 217.05231611 -125.02602774 217.05361042 -129.54614258 217.05493164 C-130.89601168 217.05532511 -130.89601168 217.05532511 -132.27315087 217.05572652 C-146.86419433 217.06008352 -161.45523388 217.06797123 -176.04627501 217.0771528 C-191.00651376 217.0864885 -205.96675045 217.09205543 -220.926992 217.09408849 C-230.16593657 217.0954639 -239.40487007 217.0998154 -248.64381123 217.10791647 C-254.97041066 217.1131829 -261.29700432 217.11480453 -267.62360578 217.11350138 C-271.2793433 217.11285784 -274.9350614 217.11387731 -278.59079552 217.11920547 C-282.54474484 217.12492654 -286.49866843 217.12300114 -290.45262146 217.12025452 C-291.62088406 217.12316736 -292.78914665 217.1260802 -293.99281114 217.12908131 C-295.04330426 217.12709026 -296.09379738 217.12509921 -297.17612362 217.12304783 C-298.09011045 217.12342755 -299.00409729 217.12380727 -299.94578069 217.1241985 C-302 217 -302 217 -303 216 C-303.09873281 214.11669453 -303.12632187 212.22964162 -303.12698364 210.34375 C-303.12980347 209.115354 -303.13262329 207.88695801 -303.13552856 206.62133789 C-303.13358397 205.24755845 -303.13153578 203.87377915 -303.12939453 202.5 C-303.13074853 201.06306921 -303.13252846 199.62613877 -303.13470459 198.18920898 C-303.13927906 194.27609411 -303.13748931 190.36300549 -303.1343255 186.44989014 C-303.13180197 182.3637281 -303.13413942 178.27756837 -303.13571167 174.19140625 C-303.13753339 167.32812088 -303.13512701 160.46484625 -303.13037109 153.6015625 C-303.12492847 145.65527994 -303.12669112 137.70902303 -303.1321975 129.76274109 C-303.13672857 122.95256836 -303.13737921 116.14240337 -303.13475883 109.33222961 C-303.13319602 105.25940531 -303.13300239 101.18659307 -303.13629532 97.11376953 C-303.13917395 93.28564243 -303.13719849 89.45754855 -303.13140106 85.62942505 C-303.13007342 84.22046972 -303.13046765 82.81151162 -303.13266373 81.40255737 C-303.13537504 79.48712257 -303.13138058 77.57168168 -303.12698364 75.65625 C-303.12660662 74.58181641 -303.12622959 73.50738281 -303.12584114 72.40039062 C-303 70 -303 70 -302 69 C-300.38923714 68.902916 -298.77419204 68.87628398 -297.16050625 68.87695217 C-296.10652974 68.87496112 -295.05255322 68.87297007 -293.96663803 68.87091869 C-292.79448448 68.87383153 -291.62233094 68.87674437 -290.41465759 68.87974548 C-289.18057036 68.87889106 -287.94648312 68.87803663 -286.6749993 68.87715632 C-283.23396238 68.87578807 -279.79298164 68.87893577 -276.35195148 68.88393438 C-272.64709462 68.88823539 -268.94223963 68.8867927 -265.23738098 68.8860321 C-258.81328351 68.88550665 -252.38919617 68.88865572 -245.96510124 68.89426994 C-236.67683152 68.902382 -227.38856671 68.90499986 -218.10029382 68.90625793 C-203.03227318 68.90844892 -187.96425794 68.91511026 -172.89624023 68.92456055 C-158.25528999 68.93373347 -143.61434121 68.94081489 -128.97338867 68.94506836 C-128.07157873 68.94533108 -127.16976879 68.94559381 -126.24063127 68.94586449 C-121.7167124 68.94716949 -117.19279351 68.94843321 -112.66887462 68.94967639 C-75.11257829 68.96005045 -37.55629193 68.97848953 0 69 C0 46.23 0 23.46 0 0 Z " fill="#010101" transform="translate(478,0)"/>
<path d="M0 0 C0 22.77 0 45.54 0 69 C99.99 69 199.98 69 303 69 C303 117.51 303 166.02 303 216 C302 217 302 217 299.94578069 217.1241985 C298.57480044 217.12362892 298.57480044 217.12362892 297.17612362 217.12304783 C295.60038394 217.1260344 295.60038394 217.1260344 293.99281114 217.12908131 C292.24041725 217.12471205 292.24041725 217.12471205 290.45262146 217.12025452 C288.60761593 217.12153615 288.60761593 217.12153615 286.72533756 217.12284368 C283.29570215 217.12421193 279.8661231 217.12106424 276.43649447 217.11606562 C272.74390766 217.11176459 269.05132274 217.1132073 265.35873413 217.1139679 C258.95591757 217.11449335 252.55311117 217.11134429 246.15029716 217.10573006 C236.89279653 217.09761798 227.63530082 217.09500014 218.37779702 217.09374207 C203.35969067 217.09155108 188.34158973 217.08488975 173.32348633 217.07543945 C158.73103869 217.06626653 144.13859252 217.05918511 129.54614258 217.05493164 C128.64731963 217.05466892 127.74849669 217.05440619 126.82243668 217.05413551 C122.31350188 217.05283051 117.80456706 217.05156679 113.29563224 217.05032361 C75.86375002 217.03994956 38.43187781 217.02151048 1 217 C1 239.77 1 262.54 1 286 C-3.53009186 282.11706412 -7.85522122 278.28882608 -12.04283142 274.0774231 C-12.60825907 273.51284987 -13.17368672 272.94827665 -13.75624853 272.36659515 C-15.63016019 270.49431664 -17.50050039 268.61851253 -19.37084961 266.74267578 C-20.72140371 265.39183931 -22.07217864 264.04122358 -23.42315674 262.69081116 C-27.07569431 259.03855963 -30.72514781 255.38324056 -34.37404323 251.72735071 C-38.19325027 247.90187803 -42.01530321 244.07925085 -45.83705139 240.25631714 C-53.06722534 233.02303933 -60.2948471 225.78721694 -67.52154881 218.55047023 C-75.75173913 210.30908941 -83.98478064 202.07055941 -92.21805942 193.83226418 C-109.14854082 176.8913398 -126.0754498 159.94684971 -143 143 C-139.21116459 138.47698796 -135.30268062 134.15744747 -131.12211609 129.99513245 C-130.28243993 129.1531163 -130.28243993 129.1531163 -129.42580062 128.29408973 C-127.56967071 126.43400541 -125.71002831 124.57747522 -123.8503418 122.72094727 C-122.51098794 121.380237 -121.17184662 120.03931438 -119.832901 118.69819641 C-116.21167016 115.0724225 -112.58730258 111.44979964 -108.96221137 107.82788587 C-105.16819839 104.03640951 -101.37663127 100.24248849 -97.58467102 96.44895935 C-91.22385333 90.0863251 -84.86093572 83.72579658 -78.49682617 77.36645508 C-71.12965161 70.00473618 -63.76610539 62.63940275 -56.40440625 55.27220875 C-50.08429066 48.94756411 -43.76223967 42.62485905 -37.43854839 36.30378956 C-33.66098863 32.52779191 -29.88411523 28.75111443 -26.10898399 24.97268867 C-22.56622104 21.42704955 -19.02104478 17.8838417 -15.47394371 14.34254265 C-14.16892533 13.03885264 -12.86476847 11.7342996 -11.56151199 10.42884827 C-9.79095358 8.65558171 -8.01738367 6.88538525 -6.2429657 5.11598206 C-5.72080229 4.59158793 -5.19863888 4.0671938 -4.66065234 3.52690893 C-1.11415074 0 -1.11415074 0 0 0 Z " fill="#010101" transform="translate(143,182)"/>
</svg>
