<?xml version="1.0" standalone="no"?>
<!DOCTYPE svg PUBLIC "-//W3C//DTD SVG 20010904//EN"
 "http://www.w3.org/TR/2001/REC-SVG-20010904/DTD/svg10.dtd">
<svg version="1.0" xmlns="http://www.w3.org/2000/svg"
 width="1097.000000pt" height="808.000000pt" viewBox="0 0 1097.000000 808.000000"
 preserveAspectRatio="xMidYMid meet">

<g transform="translate(0.000000,808.000000) scale(0.100000,-0.100000)"
fill="#000000" stroke="none">
<path d="M7658 8070 c-63 -11 -134 -44 -243 -115 -415 -268 -819 -647 -1186
-1111 -278 -352 -555 -632 -590 -597 -41 41 350 667 595 953 103 120 130 212
87 305 -19 43 -78 100 -118 116 -63 24 -161 5 -274 -51 -83 -42 -130 -74 -269
-185 -761 -605 -1494 -1173 -1540 -1194 -241 -110 -522 -273 -870 -506 -249
-167 -614 -426 -626 -446 -4 -7 6 -8 28 -4 18 3 294 41 613 85 319 44 641 93
715 109 329 72 676 130 831 138 327 18 873 -95 1309 -269 164 -66 453 -209
510 -253 181 -140 312 -212 424 -235 66 -14 151 -8 235 16 105 30 306 143 475
267 105 78 1700 1598 1790 1706 177 213 355 489 479 741 49 100 52 109 52 185
0 99 -24 155 -105 237 -45 46 -66 60 -114 73 -169 49 -361 -35 -781 -343 -71
-53 -195 -140 -275 -195 -80 -55 -185 -132 -235 -171 -422 -334 -1105 -1021
-1587 -1596 -133 -159 -188 -197 -208 -145 -34 90 25 264 170 505 90 150 144
223 237 323 218 234 444 529 694 906 187 281 209 328 209 455 0 161 -105 265
-300 297 -61 10 -66 10 -132 -1z"/>
<path d="M10529 6245 c-120 -29 -374 -148 -629 -295 -352 -202 -892 -540 -887
-555 2 -5 21 -13 43 -17 21 -5 81 -29 132 -55 208 -102 368 -308 467 -602 l31
-93 144 123 c255 219 542 485 892 825 210 205 232 239 233 354 0 88 -28 157
-97 235 -78 89 -185 115 -329 80z"/>
<path d="M4805 5290 c-234 -12 -590 -60 -795 -106 -172 -38 -1873 -264 -1991
-264 -31 0 -41 -6 -65 -37 -44 -59 -214 -232 -248 -252 -22 -14 -88 -27 -226
-45 -654 -88 -1219 -199 -1408 -278 l-73 -30 6 -57 c104 -1028 236 -1845 424
-2623 101 -416 277 -982 309 -992 53 -17 217 -38 356 -46 272 -16 621 14 924
80 l133 29 180 -49 c754 -206 1705 -349 2739 -412 269 -16 1280 -16 1545 0
259 16 594 41 622 47 26 6 51 58 93 195 43 141 60 248 60 382 0 138 -18 241
-62 346 -35 83 -45 92 -228 186 -205 105 -455 196 -697 252 -68 16 -123 31
-123 35 0 3 23 37 51 75 235 315 554 607 950 867 195 128 325 202 567 320 183
89 219 111 346 210 500 391 926 753 1196 1016 l140 136 -15 60 c-107 408 -310
696 -590 837 -62 32 -203 77 -247 79 -27 2 -116 -46 -463 -246 -236 -136 -459
-267 -495 -290 -197 -129 -398 -197 -585 -197 -150 -1 -205 17 -344 111 -484
328 -1031 562 -1506 646 -116 20 -291 25 -480 15z m279 -155 c771 -101 1377
-643 1523 -1360 28 -141 26 -455 -5 -593 -90 -402 -306 -738 -634 -984 -723
-544 -1775 -487 -2431 131 -239 226 -408 526 -479 855 -19 86 -22 131 -22 306
0 173 4 220 22 303 112 508 438 918 917 1156 206 103 411 165 628 190 120 14
359 12 481 -4z"/>
<path d="M4705 4893 c-105 -9 -207 -26 -211 -37 -2 -6 31 -96 75 -201 72 -176
80 -190 102 -187 86 9 292 3 359 -12 41 -9 76 -16 78 -16 2 0 45 86 97 192 67
137 91 194 82 199 -26 15 -208 49 -313 59 -104 10 -182 11 -269 3z"/>
<path d="M4223 4786 c-240 -99 -469 -256 -601 -414 l-43 -51 28 -14 c15 -8
121 -56 236 -106 l207 -92 76 76 c81 82 181 152 284 200 36 16 67 30 69 32 6
3 -161 403 -168 403 -3 -1 -43 -16 -88 -34z"/>
<path d="M5366 4573 c-53 -108 -95 -197 -94 -198 2 -1 37 -21 78 -45 70 -41
234 -190 272 -248 l16 -23 236 97 c130 54 236 102 236 107 0 5 -31 46 -69 91
-119 141 -296 278 -478 370 -51 25 -95 46 -97 46 -3 0 -48 -88 -100 -197z"/>
<path d="M4685 4206 c-146 -35 -253 -92 -351 -190 -239 -240 -246 -595 -15
-840 97 -102 238 -179 378 -206 101 -20 272 -9 368 24 383 130 559 525 387
869 -26 52 -58 94 -116 152 -88 88 -170 137 -291 175 -90 28 -272 36 -360 16z"/>
<path d="M3423 4077 c-107 -214 -146 -373 -146 -607 -1 -148 20 -321 41 -342
4 -4 136 53 292 127 157 74 288 136 291 137 3 2 -1 45 -9 97 -20 121 -8 247
37 380 17 52 30 95 29 96 -4 2 -411 183 -454 201 l-30 13 -51 -102z"/>
<path d="M5962 4010 c-129 -54 -235 -100 -237 -102 -3 -2 5 -33 15 -69 29 -94
42 -230 31 -319 -5 -41 -8 -76 -6 -78 2 -2 135 -52 297 -111 l293 -108 8 41
c5 23 9 109 9 191 1 171 -16 285 -64 428 -32 98 -93 228 -106 226 -4 -1 -112
-45 -240 -99z"/>
<path d="M5684 3227 c-58 -116 -179 -254 -281 -322 -24 -15 -43 -31 -43 -36 0
-12 269 -602 280 -613 20 -20 205 116 330 243 108 108 168 188 239 317 53 98
108 231 98 240 -3 3 -115 46 -249 95 -134 49 -267 98 -295 109 l-53 20 -26
-53z"/>
<path d="M3690 3105 c-146 -69 -277 -130 -293 -137 l-27 -13 36 -75 c86 -181
246 -378 409 -505 137 -107 351 -227 360 -203 17 49 238 624 241 630 3 4 -15
17 -38 29 -137 69 -297 214 -372 337 -20 34 -40 62 -44 62 -4 0 -126 -56 -272
-125z"/>
<path d="M5095 2763 c-103 -33 -340 -43 -448 -20 -49 10 -70 11 -73 3 -3 -10
-225 -592 -239 -627 -5 -14 11 -21 102 -42 313 -74 606 -61 918 40 44 14 92
32 107 39 l26 14 -141 310 c-100 220 -145 310 -156 309 -9 -1 -52 -13 -96 -26z"/>
<path d="M7654 1012 c3 -15 11 -76 17 -136 17 -166 -6 -312 -77 -486 -44 -108
-43 -102 -14 -111 14 -4 66 -20 115 -35 50 -15 168 -67 263 -116 207 -105 258
-121 357 -116 96 4 146 37 190 123 27 54 30 69 30 155 0 93 -1 97 -47 191 -26
53 -62 111 -79 129 -75 75 -354 237 -635 370 l-126 60 6 -28z"/>
</g>
</svg>
