<?xml version="1.0" standalone="no"?>
<!DOCTYPE svg PUBLIC "-//W3C//DTD SVG 20010904//EN"
 "http://www.w3.org/TR/2001/REC-SVG-20010904/DTD/svg10.dtd">
<svg version="1.0" xmlns="http://www.w3.org/2000/svg"
 width="471.000000pt" height="518.000000pt" viewBox="0 0 471.000000 518.000000"
 preserveAspectRatio="xMidYMid meet">

<g transform="translate(0.000000,518.000000) scale(0.100000,-0.100000)"
fill="#000000" stroke="none">
<path d="M2715 5168 c-44 -5 -83 -12 -86 -16 -5 -5 -125 -373 -164 -500 -7
-23 -6 -23 74 -16 l80 7 -59 -179 c-33 -98 -60 -183 -60 -188 0 -5 27 -6 61
-3 53 5 60 3 56 -11 -2 -10 -26 -92 -52 -185 -26 -92 -46 -169 -44 -171 2 -2
55 1 118 8 l115 11 68 225 c37 124 72 239 77 255 l8 31 -75 -8 c-41 -5 -77 -6
-79 -4 -3 2 22 91 56 197 33 107 59 194 58 195 -1 0 -31 -2 -67 -6 -36 -4 -67
-5 -69 -3 -4 3 79 310 97 361 5 13 2 13 -113 0z"/>
<path d="M1685 5011 l-90 -37 -5 -275 c-3 -151 -5 -275 -4 -277 1 -2 35 10 74
27 l72 30 -3 -200 c-2 -109 -3 -199 -2 -199 1 0 27 11 56 24 l54 24 7 -91 c3
-49 6 -137 6 -194 0 -56 3 -103 8 -102 4 0 52 20 107 43 l100 42 3 267 c1 147
0 267 -2 267 -2 0 -35 -13 -73 -29 l-68 -29 -3 204 c-3 232 6 215 -86 173
l-41 -18 -7 162 c-4 89 -9 176 -10 194 l-3 32 -90 -38z"/>
<path d="M665 4435 c-44 -50 -66 -81 -62 -93 8 -30 199 -477 207 -485 4 -4 30
18 59 49 28 31 53 55 55 53 2 -2 36 -83 76 -179 39 -96 73 -176 75 -178 1 -2
22 18 46 43 l44 46 79 -173 c44 -95 81 -175 84 -178 5 -6 162 161 162 172 0 6
-70 167 -187 427 l-24 54 -58 -57 -57 -56 -79 182 c-43 101 -80 185 -82 187
-2 3 -26 -17 -53 -44 -27 -27 -51 -47 -54 -44 -2 2 -40 82 -84 177 l-79 172
-68 -75z"/>
<path d="M2775 3689 c-142 -9 -217 -22 -340 -61 -296 -94 -682 -361 -919 -637
-160 -186 -310 -392 -427 -585 -60 -99 -121 -155 -267 -245 -163 -101 -545
-279 -759 -354 -74 -26 -73 -16 -21 -172 114 -340 484 -917 952 -1484 61 -74
114 -139 117 -144 3 -5 34 5 67 22 323 163 1066 367 1822 501 214 37 274 51
415 97 323 104 680 286 826 421 68 63 166 181 221 268 49 76 126 240 162 341
35 103 86 311 86 355 0 60 -32 131 -82 185 -50 52 -149 118 -167 111 -5 -2
-45 -44 -88 -93 -125 -141 -267 -248 -405 -305 -51 -21 -60 -22 -90 -9 -46 19
-105 75 -131 123 -18 34 -22 57 -22 142 0 98 1 102 43 188 34 67 61 105 125
170 142 143 247 195 263 131 7 -29 -4 -67 -17 -60 -5 4 -9 2 -9 -2 0 -5 -12
-16 -27 -25 -44 -26 -132 -104 -175 -156 -95 -113 -130 -244 -90 -334 27 -62
61 -84 104 -69 102 36 300 199 410 340 29 36 56 68 60 71 15 12 48 105 64 182
12 60 15 112 12 194 -5 99 -9 120 -36 178 -76 163 -295 312 -607 415 l-119 39
-15 43 c-19 58 -98 135 -181 176 -108 54 -223 63 -404 32 -41 -7 -73 -7 -100
0 -59 15 -126 17 -251 10z m57 -213 c262 -66 446 -232 525 -471 23 -71 26 -96
26 -215 0 -202 -34 -311 -153 -489 -69 -103 -215 -246 -320 -316 -430 -283
-974 -247 -1249 81 -144 172 -190 409 -126 654 81 311 373 606 715 723 124 42
206 55 351 56 113 1 153 -3 231 -23z"/>
<path d="M2478 3353 c-27 -2 -48 -7 -48 -10 0 -4 10 -37 22 -74 19 -60 25 -68
51 -73 67 -14 73 -10 122 70 25 42 43 79 40 82 -8 8 -124 11 -187 5z"/>
<path d="M2855 3169 c-89 -152 -84 -156 95 -82 74 31 137 58 140 60 7 7 -88
88 -132 113 l-37 21 -66 -112z"/>
<path d="M2121 3234 c-68 -38 -158 -101 -179 -127 -15 -18 -13 -19 61 -47 l57
-22 30 25 c16 14 54 39 84 56 l54 31 -15 53 c-9 28 -18 55 -22 59 -3 4 -35 -9
-70 -28z"/>
<path d="M2328 3031 c-80 -26 -136 -61 -190 -119 -66 -70 -90 -123 -96 -208
-5 -87 8 -133 56 -186 122 -135 354 -123 511 27 82 78 115 148 115 245 1 111
-41 179 -143 230 -63 31 -177 37 -253 11z"/>
<path d="M3051 2860 c-215 -89 -220 -97 -78 -140 56 -18 136 -42 177 -55 l75
-23 8 36 c9 39 3 179 -10 224 l-8 27 -164 -69z"/>
<path d="M1716 2809 c-41 -90 -66 -183 -66 -251 l0 -48 115 57 115 58 0 45 c0
25 6 70 14 100 8 30 12 57 10 60 -3 2 -38 16 -79 31 l-73 27 -36 -79z"/>
<path d="M2732 2480 l-33 -39 64 -148 c36 -81 70 -160 77 -175 l13 -27 60 47
c85 67 240 252 224 268 -5 6 -359 114 -367 113 -3 0 -20 -18 -38 -39z"/>
<path d="M1842 2327 l-142 -72 30 -48 c16 -26 48 -67 70 -91 40 -43 147 -123
153 -115 17 21 135 335 128 337 -5 2 -28 16 -50 33 -23 16 -42 29 -43 28 -2 0
-67 -33 -146 -72z"/>
<path d="M2407 2301 l-68 -16 -58 -140 c-31 -77 -65 -160 -75 -184 l-17 -44
143 6 c105 4 163 11 218 27 41 12 76 23 77 24 4 4 -137 329 -146 337 -3 3 -37
-1 -74 -10z"/>
</g>
</svg>
