<?xml version="1.0" standalone="no"?>
<!DOCTYPE svg PUBLIC "-//W3C//DTD SVG 20010904//EN"
 "http://www.w3.org/TR/2001/REC-SVG-20010904/DTD/svg10.dtd">
<svg version="1.0" xmlns="http://www.w3.org/2000/svg"
 width="514.000000pt" height="603.000000pt" viewBox="0 0 514.000000 603.000000"
 preserveAspectRatio="xMidYMid meet">

<g transform="translate(0.000000,603.000000) scale(0.100000,-0.100000)"
fill="#000000" stroke="none">
<path d="M2625 6019 c-173 -11 -537 -56 -654 -81 -279 -59 -566 -205 -763
-388 l-78 -71 -72 36 c-132 65 -248 69 -373 11 -125 -57 -409 -450 -508 -701
-72 -183 -86 -352 -39 -457 27 -62 101 -140 174 -185 33 -20 57 -42 54 -48 -2
-6 -67 -184 -144 -396 -194 -532 -207 -588 -207 -889 1 -226 13 -308 75 -492
89 -266 284 -546 465 -668 86 -58 191 -168 218 -229 16 -36 18 -57 13 -111
-11 -125 26 -243 101 -315 78 -76 362 -254 828 -520 143 -82 300 -172 348
-201 189 -114 484 -204 824 -254 317 -46 751 -64 968 -40 383 42 686 169 890
375 139 139 231 294 276 466 29 108 31 296 6 410 l-18 76 36 59 c60 99 87 201
88 329 1 61 -4 134 -12 165 -18 74 -64 167 -111 223 l-38 47 18 37 c123 259
136 986 34 1838 -13 116 -29 256 -34 312 -14 155 -31 626 -33 928 l-2 270 -27
52 c-70 132 -267 265 -515 347 -201 66 -409 48 -553 -49 l-50 -34 -57 24
c-257 104 -690 151 -1128 124z m-652 -2554 c69 -18 119 -42 210 -102 162 -107
418 -184 757 -229 169 -22 627 -31 757 -14 246 30 526 105 706 188 103 48 158
58 226 42 69 -16 86 -39 85 -109 -2 -91 -44 -161 -177 -294 -380 -379 -382
-613 -4 -716 185 -50 280 -135 232 -207 -25 -38 -79 -57 -140 -50 -130 17
-155 18 -189 6 -70 -23 -93 -53 -127 -163 -56 -182 -99 -241 -168 -235 -68 6
-100 98 -146 413 -28 187 -88 450 -116 506 -22 45 -80 96 -138 123 -38 17 -65
21 -156 21 -60 0 -135 -6 -165 -14 -113 -28 -217 -98 -254 -170 -25 -47 -62
-210 -126 -546 -33 -176 -60 -323 -60 -327 0 -4 -14 -23 -30 -42 -37 -42 -86
-54 -130 -31 -43 22 -113 132 -168 266 -51 122 -74 147 -151 169 -61 17 -203
11 -358 -14 -456 -75 -813 -74 -931 2 -28 18 -52 62 -52 96 0 36 52 91 113
120 165 77 455 128 897 156 252 16 389 52 461 120 35 33 39 42 39 87 0 66 -36
115 -132 183 -98 69 -208 120 -391 181 -219 74 -317 128 -408 226 -60 63 -79
102 -86 168 -7 69 10 119 53 151 70 54 160 67 267 39z"/>
</g>
</svg>
