<?xml version="1.0" standalone="no"?>
<!DOCTYPE svg PUBLIC "-//W3C//DTD SVG 20010904//EN"
 "http://www.w3.org/TR/2001/REC-SVG-20010904/DTD/svg10.dtd">
<svg version="1.0" xmlns="http://www.w3.org/2000/svg"
 width="542.000000pt" height="490.000000pt" viewBox="0 0 542.000000 490.000000"
 preserveAspectRatio="xMidYMid meet">

<g transform="translate(0.000000,490.000000) scale(0.100000,-0.100000)"
fill="#000000" stroke="none">
<path d="M150 2589 l0 -2302 -70 -138 c-39 -76 -70 -139 -70 -141 0 -2 184 -3
410 -3 225 0 410 1 410 3 0 1 -29 61 -65 132 l-65 130 0 2310 0 2310 -275 0
-275 0 0 -2301z"/>
<path d="M4730 2585 l0 -2305 -69 -138 -69 -137 413 0 413 0 -69 137 -69 138
0 2305 0 2305 -275 0 -275 0 0 -2305z"/>
<path d="M920 4380 l0 -150 240 0 240 0 0 -139 0 -139 -117 35 c-65 19 -154
45 -197 58 -44 14 -82 23 -84 20 -2 -2 35 -86 82 -186 47 -100 86 -186 86
-192 0 -8 -54 20 -117 61 -20 12 -13 -9 43 -144 108 -261 117 -285 111 -290
-3 -3 -29 12 -59 33 -29 22 -58 43 -65 47 -7 4 -1 -23 13 -61 105 -279 154
-411 154 -417 0 -14 -16 -1 -79 67 -40 44 -60 60 -56 45 4 -13 45 -133 91
-267 46 -135 82 -246 81 -248 -2 -1 -33 18 -70 43 -37 24 -67 41 -67 37 0 -3
43 -132 95 -286 53 -154 94 -282 91 -284 -2 -2 -37 36 -78 85 -40 50 -74 89
-76 88 -2 -2 167 -577 183 -623 7 -20 0 -16 -51 27 -25 23 -48 39 -51 36 -2
-2 25 -120 61 -263 37 -142 68 -266 70 -276 5 -19 2 -18 -61 25 -24 16 -43 25
-43 20 0 -15 211 -677 219 -684 6 -7 231 683 225 690 -1 2 -22 -9 -46 -25 -24
-16 -48 -33 -54 -36 -7 -4 21 122 62 279 79 311 79 295 2 225 -15 -13 -30 -22
-34 -19 -3 4 35 142 85 309 50 166 89 304 87 306 -2 2 -36 -35 -75 -82 -40
-47 -74 -85 -76 -85 -6 0 16 66 108 335 46 132 82 242 81 243 -1 2 -30 -15
-64 -38 -34 -23 -64 -39 -67 -36 -3 3 33 119 81 257 47 139 85 254 82 256 -2
2 -32 -28 -67 -67 -35 -40 -65 -68 -66 -63 -3 7 108 312 173 478 6 14 -11 6
-60 -29 -37 -26 -70 -46 -72 -43 -3 3 35 103 85 223 50 120 89 219 88 220 -1
2 -31 -15 -66 -37 -34 -23 -65 -38 -68 -36 -2 3 36 91 86 196 49 105 87 191
85 191 -2 0 -89 -25 -192 -56 -103 -30 -195 -57 -204 -60 -17 -5 -18 6 -18
135 l0 141 505 0 505 0 0 -140 c0 -77 -1 -140 -2 -140 -2 0 -91 27 -198 59
-107 32 -197 57 -198 55 -2 -1 36 -86 84 -188 48 -103 85 -189 82 -192 -3 -3
-35 13 -71 35 l-65 40 62 -152 c35 -84 77 -185 94 -226 18 -41 30 -76 29 -78
-2 -1 -36 20 -75 48 l-71 50 25 -68 c117 -310 154 -411 154 -424 0 -8 -31 20
-70 61 l-70 75 90 -264 c50 -146 89 -266 87 -267 -1 -2 -31 15 -65 38 -34 22
-64 39 -67 37 -2 -3 39 -130 91 -283 52 -153 93 -280 91 -283 -3 -2 -39 37
-81 87 -42 51 -76 90 -76 88 0 -2 42 -146 94 -319 52 -172 93 -316 91 -318 -2
-2 -25 15 -51 38 -26 23 -49 39 -51 37 -2 -2 28 -126 66 -277 39 -150 69 -274
68 -275 -2 -2 -24 11 -50 28 -26 17 -50 29 -52 26 -4 -4 209 -685 217 -693 2
-2 52 150 112 338 60 188 111 348 113 355 3 7 -18 -2 -46 -19 -28 -18 -54 -30
-57 -27 -4 5 101 434 133 542 4 14 -12 5 -48 -27 -30 -26 -55 -44 -56 -40 -2
5 39 149 91 321 51 171 92 312 91 312 -1 0 -37 -43 -80 -95 -42 -52 -79 -95
-80 -95 -6 0 14 62 108 338 l86 252 -67 -45 c-37 -25 -68 -41 -70 -37 -1 5 38
127 88 272 l90 264 -71 -78 c-39 -42 -73 -75 -76 -73 -2 3 36 112 86 243 49
132 88 241 86 242 -2 2 -33 -17 -69 -43 -36 -26 -66 -43 -66 -38 0 4 40 105
89 223 49 118 88 216 87 218 -2 1 -31 -14 -65 -34 -34 -20 -64 -35 -66 -32 -3
3 31 81 76 174 44 93 85 179 89 191 l9 22 -52 -15 c-29 -9 -118 -35 -199 -60
-80 -24 -151 -44 -157 -44 -7 0 -11 45 -11 140 l0 140 520 0 520 0 0 -140 c0
-107 -3 -138 -12 -135 -43 16 -383 113 -386 110 -2 -1 37 -88 86 -192 49 -103
88 -190 86 -192 -3 -3 -69 33 -121 67 l-23 14 16 -38 c100 -238 173 -418 171
-421 -2 -1 -28 15 -58 38 -91 69 -92 69 -63 -8 121 -321 155 -415 151 -419 -5
-5 -94 85 -123 123 -7 10 -14 15 -14 11 0 -3 41 -124 90 -269 50 -144 89 -264
87 -265 -2 -2 -33 17 -70 42 -37 24 -67 42 -67 38 0 -3 43 -132 96 -286 52
-154 94 -282 91 -284 -2 -3 -37 36 -78 85 -40 49 -75 88 -76 87 -2 -2 39 -144
91 -317 52 -172 93 -315 92 -316 -2 -2 -24 15 -50 38 -26 23 -49 39 -52 36 -3
-2 26 -127 65 -276 38 -149 66 -271 62 -271 -4 0 -28 13 -54 30 -26 16 -47 27
-47 23 0 -7 45 -152 162 -517 l60 -189 79 249 c163 513 150 465 126 452 -12
-6 -35 -20 -50 -31 -16 -10 -30 -17 -33 -14 -3 3 26 129 64 281 l70 276 -49
-41 c-28 -23 -52 -39 -55 -37 -3 3 36 142 86 308 50 167 89 305 86 307 -2 2
-35 -34 -72 -81 -38 -47 -72 -85 -76 -86 -4 0 37 131 91 290 54 160 97 290 94
290 -2 0 -31 -18 -64 -41 -33 -22 -63 -38 -66 -36 -3 3 34 119 81 258 48 138
85 254 83 256 -3 2 -33 -28 -67 -67 -34 -39 -65 -69 -67 -66 -3 3 34 110 82
238 49 128 90 240 93 248 3 8 -25 -7 -62 -34 -37 -26 -69 -46 -72 -43 -3 2 34
98 82 213 47 115 89 215 92 222 2 7 -26 -5 -63 -28 -37 -23 -69 -39 -72 -37
-2 3 36 89 85 193 49 104 88 190 87 192 -1 2 -87 -22 -191 -53 -104 -31 -197
-58 -206 -61 -17 -5 -18 6 -18 135 l0 141 195 0 195 0 0 150 0 150 -1775 0
-1775 0 0 -150z"/>
</g>
</svg>
