<?xml version="1.0" standalone="no"?>
<!DOCTYPE svg PUBLIC "-//W3C//DTD SVG 20010904//EN"
 "http://www.w3.org/TR/2001/REC-SVG-20010904/DTD/svg10.dtd">
<svg version="1.0" xmlns="http://www.w3.org/2000/svg"
 width="514.000000pt" height="586.000000pt" viewBox="0 0 514.000000 586.000000"
 preserveAspectRatio="xMidYMid meet">

<g transform="translate(0.000000,586.000000) scale(0.100000,-0.100000)"
fill="#000000" stroke="none">
<path d="M3297 5821 c-18 -22 -26 -46 -31 -93 -11 -119 -67 -970 -64 -980 2
-5 50 84 106 199 l102 208 20 284 c26 365 26 346 -9 382 -41 40 -90 40 -124 0z"/>
<path d="M3366 4681 c-88 -175 -171 -301 -270 -408 -17 -18 -25 -33 -20 -33 6
0 383 -25 838 -55 l828 -55 41 29 c104 71 227 235 312 413 l44 93 -37 7 c-37
8 -1569 98 -1649 98 l-43 0 -44 -89z m867 -46 c419 -25 763 -48 765 -50 5 -5
-41 -84 -99 -170 -45 -67 -135 -163 -171 -181 -16 -9 -1456 80 -1465 90 -2 2
19 39 47 82 29 44 73 123 98 176 26 54 51 97 56 98 5 0 351 -20 769 -45z"/>
<path d="M2283 3827 c-326 -154 -591 -282 -589 -284 2 -2 181 -26 397 -53 310
-39 398 -53 416 -67 12 -10 130 -107 263 -216 132 -109 245 -197 249 -195 4 2
369 221 810 488 578 350 796 487 784 492 -16 5 -1719 121 -1733 117 -3 0 -272
-127 -597 -282z"/>
<path d="M3960 3325 c-448 -272 -819 -496 -824 -497 -5 -2 21 -159 58 -348 36
-190 66 -357 66 -371 0 -15 -54 -206 -120 -424 -67 -219 -119 -401 -118 -405
2 -4 400 232 885 524 l883 531 0 743 c0 408 -3 742 -7 742 -5 -1 -375 -223
-823 -495z"/>
<path d="M466 3252 c-147 -102 -264 -187 -260 -189 5 -2 140 -21 299 -43 l290
-40 80 87 80 86 121 -17 c66 -9 123 -16 127 -16 16 0 3 -21 -59 -94 -37 -42
-65 -79 -63 -81 2 -2 140 -22 307 -45 294 -40 303 -41 327 -23 58 44 463 378
461 380 -3 3 -1426 183 -1436 183 -3 -1 -126 -85 -274 -188z"/>
<path d="M2184 2979 c-142 -117 -260 -217 -262 -223 -2 -10 410 -1042 421
-1052 6 -7 678 446 683 460 4 11 -112 632 -122 647 -3 5 -100 86 -217 180
-117 95 -219 178 -228 186 -14 12 -48 -13 -275 -198z"/>
<path d="M10 2332 l0 -537 257 -375 257 -375 789 -123 c435 -67 792 -120 794
-118 6 5 72 636 73 683 0 32 -432 1118 -454 1139 -10 10 -713 110 -721 102 -2
-2 7 -55 21 -117 13 -63 22 -116 19 -119 -5 -5 -244 26 -256 33 -3 3 -17 57
-29 122 -13 65 -24 119 -24 120 -1 1 -152 22 -336 47 -184 25 -347 48 -362 51
l-28 5 0 -538z m325 373 c164 -12 117 24 487 -372 183 -196 334 -361 336 -367
1 -6 -32 -51 -74 -99 l-77 -89 -22 24 c-68 71 -777 892 -782 905 -5 12 0 14
23 10 16 -3 65 -8 109 -12z m1181 -96 c60 -6 110 -12 112 -14 2 -2 -365 -513
-385 -534 -7 -9 -183 174 -179 186 3 7 66 94 141 193 155 206 122 188 311 169z"/>
<path d="M3740 1449 c-465 -281 -852 -513 -860 -517 -8 -3 -93 -58 -189 -121
l-174 -116 5 -323 c3 -178 8 -325 11 -328 3 -3 467 294 1031 661 l1026 667 0
294 c0 162 -1 294 -2 294 -2 0 -383 -230 -848 -511z"/>
<path d="M2690 1667 c-146 -98 -271 -181 -277 -185 -9 -5 -23 -105 -43 -297
-16 -160 -30 -302 -30 -318 0 -26 7 -22 198 105 l198 132 112 370 c62 203 111
370 110 371 -2 1 -122 -79 -268 -178z"/>
<path d="M1026 652 c4 -53 7 -98 8 -98 2 -2 1371 -235 1379 -234 9 0 8 211 -1
263 l-7 37 -53 -36 -53 -35 -622 96 c-342 52 -630 97 -640 99 -17 4 -18 -2
-11 -92z"/>
<path d="M1038 378 c2 -40 4 -79 5 -87 1 -11 179 -49 691 -148 379 -73 690
-132 690 -130 1 1 0 46 -2 99 -3 91 -5 98 -25 103 -12 3 -312 55 -667 115
-355 60 -656 112 -670 115 l-26 6 4 -73z"/>
</g>
</svg>
