<?xml version="1.0" standalone="no"?>
<!DOCTYPE svg PUBLIC "-//W3C//DTD SVG 20010904//EN"
 "http://www.w3.org/TR/2001/REC-SVG-20010904/DTD/svg10.dtd">
<svg version="1.0" xmlns="http://www.w3.org/2000/svg"
 width="628.000000pt" height="659.000000pt" viewBox="0 0 628.000000 659.000000"
 preserveAspectRatio="xMidYMid meet">

<g transform="translate(0.000000,659.000000) scale(0.100000,-0.100000)"
fill="#000000" stroke="none">
<path d="M2532 6513 c-283 -487 -522 -905 -522 -914 0 -5 127 -230 282 -500
l283 -489 566 0 565 0 282 489 c155 268 282 494 281 502 0 8 -125 230 -278
494 l-277 480 -572 3 -571 2 -39 -67z"/>
<path d="M556 5378 c-66 -106 -546 -950 -546 -960 1 -7 126 -229 278 -493
l278 -480 570 -3 569 -2 284 491 c244 424 282 494 273 513 -6 11 -132 230
-280 486 l-269 465 -571 3 -571 2 -15 -22z"/>
<path d="M4532 5333 c-352 -608 -522 -908 -520 -919 2 -7 120 -215 263 -463
l260 -451 606 0 606 0 265 460 266 459 -282 488 -281 488 -572 3 -572 2 -39
-67z"/>
<path d="M2291 3800 c-155 -269 -281 -495 -279 -503 2 -7 128 -230 281 -495
l279 -482 566 0 567 0 283 492 283 491 -116 201 c-63 111 -191 332 -283 491
l-167 290 -566 3 -565 2 -283 -490z"/>
<path d="M4301 2700 c-149 -258 -276 -480 -282 -494 -10 -21 17 -72 272 -515
l284 -491 566 0 567 0 140 243 c77 133 205 355 285 493 l145 252 -283 488
-282 489 -570 3 -571 2 -271 -470z"/>
<path d="M311 2620 c-194 -336 -281 -496 -276 -507 3 -10 130 -233 282 -495
l275 -478 570 2 570 3 283 490 c253 438 282 492 271 510 -7 11 -135 233 -285
493 l-273 472 -567 0 -568 0 -282 -490z"/>
<path d="M2317 1492 c-152 -262 -279 -485 -282 -494 -4 -11 89 -182 277 -507
l283 -491 568 2 568 3 257 445 c141 245 269 466 284 491 l27 45 -283 490 -283
489 -570 3 -570 2 -276 -478z"/>
</g>
</svg>
