<?xml version="1.0" standalone="no"?>
<!DOCTYPE svg PUBLIC "-//W3C//DTD SVG 20010904//EN"
 "http://www.w3.org/TR/2001/REC-SVG-20010904/DTD/svg10.dtd">
<svg version="1.0" xmlns="http://www.w3.org/2000/svg"
 width="746.000000pt" height="745.000000pt" viewBox="0 0 746.000000 745.000000"
 preserveAspectRatio="xMidYMid meet">

<g transform="translate(0.000000,745.000000) scale(0.100000,-0.100000)"
fill="#000000" stroke="none">
<path d="M5948 7404 c-14 -21 -74 -119 -134 -217 -60 -98 -116 -188 -124 -202
-42 -67 -137 -220 -152 -243 -9 -15 -23 -37 -30 -49 -7 -12 -50 -83 -95 -156
-46 -74 -83 -138 -83 -143 0 -5 34 -43 75 -84 41 -41 75 -79 75 -85 0 -5 -527
-537 -1172 -1182 -1131 -1131 -1171 -1172 -1142 -1178 145 -33 258 -107 437
-286 161 -162 231 -274 274 -439 2 -8 461 443 1176 1158 645 645 1176 1172
1182 1172 5 0 45 -35 87 -77 67 -67 81 -76 96 -66 9 7 109 69 222 138 113 70
302 187 420 261 118 73 224 138 235 144 11 6 50 30 87 53 l67 43 -193 193
-193 192 -102 -63 c-56 -35 -112 -70 -126 -78 -13 -8 -67 -42 -120 -75 -53
-33 -107 -67 -120 -75 -13 -8 -64 -40 -112 -70 -48 -30 -103 -65 -122 -77 -19
-13 -41 -23 -50 -23 -9 0 -108 92 -220 204 l-204 204 57 94 c32 51 93 149 136
218 43 69 109 175 146 235 37 61 72 117 79 125 6 8 21 31 33 51 l21 35 -193
193 -194 194 -24 -39z"/>
<path d="M2590 6918 c-45 -73 -101 -162 -123 -198 -22 -36 -57 -92 -77 -125
-21 -33 -68 -109 -105 -169 l-67 -108 58 -59 59 -59 -823 -823 -823 -823 51
-13 c173 -44 459 -347 460 -486 0 -27 82 52 823 793 452 452 827 822 832 822
6 0 33 -22 60 -50 27 -27 52 -50 56 -50 4 0 81 46 171 101 89 56 183 114 208
129 25 15 83 51 130 80 47 29 115 71 153 93 37 23 67 44 67 47 0 3 -60 65
-133 138 l-132 132 -90 -57 c-50 -31 -131 -82 -181 -114 -50 -32 -128 -81
-174 -109 l-84 -51 -147 148 -148 148 51 80 c28 44 72 114 98 155 26 41 78
124 115 183 l68 109 -135 135 -135 135 -83 -134z"/>
<path d="M6372 6767 c-57 -89 -144 -225 -193 -301 l-91 -139 119 -119 c65 -65
122 -118 128 -118 6 0 39 19 75 42 36 23 88 56 115 74 28 17 109 69 180 116
72 46 154 99 183 118 28 18 52 37 52 41 0 15 -88 153 -135 211 -25 32 -71 78
-103 103 -67 54 -197 135 -215 135 -7 0 -58 -74 -115 -163z"/>
<path d="M2886 6478 l-136 -212 82 -83 c46 -46 88 -81 95 -78 7 2 105 63 217
136 l205 131 -27 50 c-52 97 -196 231 -283 263 -13 5 -48 -43 -153 -207z"/>
<path d="M522 4303 c-71 -149 -87 -187 -160 -388 -54 -149 -83 -234 -92 -273
-8 -33 -8 -33 23 -26 28 6 124 39 378 130 86 30 222 90 339 149 l92 46 -5 42
c-22 163 -240 396 -422 452 -28 8 -57 15 -66 15 -10 0 -39 -50 -87 -147z"/>
<path d="M5885 3543 c-77 -124 -159 -257 -182 -294 -24 -38 -63 -101 -88 -141
l-45 -72 57 -58 58 -58 -823 -823 -823 -823 57 -17 c156 -48 399 -285 443
-432 7 -22 15 -47 17 -55 3 -9 296 277 822 803 449 449 822 817 827 817 6 0
35 -24 64 -54 l53 -54 47 28 c25 15 174 107 331 205 157 98 300 187 318 197
17 11 32 23 32 27 0 3 -58 64 -129 135 -81 80 -134 127 -143 123 -8 -2 -84
-49 -169 -102 -85 -54 -176 -111 -204 -127 -27 -17 -68 -43 -92 -59 -23 -16
-45 -29 -50 -29 -10 0 -293 282 -293 292 0 4 23 43 50 87 28 45 73 118 101
163 28 45 77 123 110 173 32 51 59 96 59 101 0 5 -60 69 -132 141 l-133 132
-140 -226z"/>
<path d="M2983 3688 c-123 -232 -206 -427 -333 -784 -111 -309 -133 -384 -111
-384 38 0 647 218 818 294 195 85 373 180 373 197 0 28 -41 151 -68 204 -108
215 -341 421 -547 484 -94 29 -111 28 -132 -11z"/>
<path d="M6239 3197 l-136 -212 81 -82 c44 -46 85 -83 90 -83 9 0 72 39 299
187 l127 83 -27 51 c-37 70 -164 198 -235 237 -32 18 -59 32 -60 32 -2 0 -64
-96 -139 -213z"/>
<path d="M1556 2199 c-59 -96 -113 -183 -119 -193 -7 -11 -27 -44 -44 -72 -18
-29 -33 -57 -33 -62 0 -4 14 -21 30 -37 17 -16 30 -36 30 -44 0 -9 -250 -266
-555 -571 l-555 -554 62 -28 c110 -51 278 -240 278 -315 0 -11 222 204 563
545 309 309 566 562 572 562 5 0 26 -16 46 -36 40 -40 38 -40 124 16 17 11 46
29 65 40 19 11 47 28 62 38 15 9 86 53 157 98 l130 80 -92 91 -92 91 -140 -89
c-77 -49 -150 -93 -162 -98 -11 -5 -24 -15 -28 -20 -15 -25 -45 -6 -136 85
-103 103 -104 104 -64 159 12 17 25 37 28 45 4 8 36 60 72 115 102 158 103
132 -2 237 l-90 90 -107 -173z"/>
<path d="M1892 2108 c-7 -7 -12 -15 -12 -19 0 -4 -19 -36 -43 -71 -65 -95
-107 -167 -107 -181 0 -16 91 -107 107 -107 7 0 41 20 77 45 37 25 68 45 70
45 9 0 125 80 131 90 14 23 -72 133 -142 179 -51 34 -63 37 -81 19z"/>
<path d="M3928 1127 c-85 -153 -185 -396 -284 -695 -28 -85 -30 -102 -9 -102
25 0 452 155 563 204 56 26 138 64 182 86 79 39 79 40 74 72 -4 18 -24 71 -47
118 -66 140 -221 284 -358 333 -90 32 -95 31 -121 -16z"/>
<path d="M227 567 c-28 -45 -103 -215 -144 -327 -36 -97 -73 -210 -73 -222 0
-16 331 104 479 174 91 43 92 43 87 75 -18 119 -168 276 -298 311 -33 9 -38 8
-51 -11z"/>
</g>
</svg>
